<svg width="800" height="600" viewBox="0 0 800 600" fill="none"
    xmlns="http://www.w3.org/2000/svg">
    <rect width="800" height="600" fill="#D9D9D9"/>
    <path d="M159.289 84.7038C159.289 85.892 159.64 86.9722 160.342 87.9443C161.098 88.9165 162.07 89.7536 163.258 90.4557C164.446 91.1038 165.797 91.6709 167.309 92.157C168.821 92.643 170.414 93.1561 172.089 93.6962C173.817 94.2363 175.464 94.8304 177.03 95.4785C178.651 96.1266 180.082 96.9367 181.324 97.9089C184.024 100.015 185.375 102.905 185.375 106.577C185.375 108.305 184.943 109.953 184.078 111.519C183.268 113.031 182.107 114.327 180.595 115.408C177.57 117.568 173.601 118.648 168.686 118.648C163.663 118.648 159.478 117.46 156.129 115.084C154.077 113.733 152.997 112.788 152.889 112.248C152.835 112.032 152.808 111.816 152.808 111.6C152.808 111.33 152.862 111.033 152.97 110.709C153.078 110.385 153.213 110.115 153.375 109.899C153.861 109.305 154.293 109.008 154.671 109.008C155.103 109.008 155.508 109.143 155.886 109.413C156.264 109.683 156.696 110.007 157.182 110.385C157.722 110.763 158.37 111.195 159.127 111.681C159.937 112.167 160.828 112.599 161.8 112.977C163.96 113.733 166.04 114.111 168.038 114.111C170.09 114.111 171.765 113.976 173.061 113.706C174.411 113.382 175.572 112.896 176.544 112.248C178.597 110.844 179.623 109.062 179.623 106.901C179.623 103.175 176.922 100.474 171.522 98.8C170.009 98.3139 168.416 97.8278 166.742 97.3418C165.122 96.8017 163.501 96.1806 161.881 95.4785C160.261 94.7764 158.83 93.9392 157.587 92.9671C156.345 91.9949 155.346 90.8338 154.59 89.4835C153.888 88.0793 153.537 86.5131 153.537 84.7848C153.537 83.0565 153.969 81.4363 154.833 79.924C155.697 78.4118 156.831 77.1696 158.235 76.1975C161.152 74.0911 164.743 73.038 169.01 73.038C175.113 73.038 180.055 75.0363 183.835 79.0329C184.105 79.303 184.241 79.654 184.241 80.0861C184.241 80.5181 184.186 80.8692 184.078 81.1392C184.024 81.4093 183.916 81.6523 183.754 81.8684C183.376 82.4084 182.863 82.6785 182.215 82.6785C181.567 82.6785 180.865 82.3004 180.109 81.5443C178.435 80.3021 177.03 79.438 175.896 78.9519C173.898 78.1418 171.765 77.7367 169.496 77.7367C166.796 77.7367 164.5 78.3038 162.61 79.438C160.396 80.6802 159.289 82.4354 159.289 84.7038ZM198.245 76.2785C198.245 77.0346 197.948 77.7097 197.354 78.3038C196.759 78.8439 195.922 79.1139 194.842 79.1139C193.762 79.1139 192.925 78.8439 192.331 78.3038C191.737 77.7097 191.44 77.0346 191.44 76.2785C191.44 75.5224 191.737 74.8473 192.331 74.2532C192.925 73.6591 193.762 73.362 194.842 73.362C195.922 73.362 196.759 73.6591 197.354 74.2532C197.948 74.8473 198.245 75.5224 198.245 76.2785ZM192.412 89.5646C192.412 88.7544 192.655 88.1333 193.141 87.7013C193.681 87.2692 194.194 87.0532 194.68 87.0532C195.166 87.0532 195.544 87.1072 195.814 87.2152C196.084 87.3232 196.327 87.4852 196.543 87.7013C197.084 88.0793 197.354 88.7004 197.354 89.5646V115.489C197.354 116.299 197.084 116.92 196.543 117.352C196.003 117.784 195.409 118 194.761 118C194.167 118 193.627 117.811 193.141 117.433C192.655 117.001 192.412 116.353 192.412 115.489V89.5646ZM213.902 102.122L204.91 90.8608C204.586 90.4287 204.424 90.0236 204.424 89.6456C204.424 89.2135 204.505 88.8624 204.667 88.5924C204.829 88.2684 205.045 87.9983 205.315 87.7823C205.855 87.2962 206.368 87.0532 206.854 87.0532C207.772 87.0532 208.528 87.4042 209.122 88.1063L217.386 98.962L225.811 87.9443C226.297 87.3502 226.864 87.0532 227.512 87.0532C228.16 87.0532 228.7 87.2692 229.132 87.7013C229.618 88.0793 229.862 88.5384 229.862 89.0785C229.862 89.5646 229.699 89.9966 229.375 90.3747L220.383 102.041L230.024 114.273C230.348 114.705 230.51 115.111 230.51 115.489C230.51 115.867 230.429 116.218 230.267 116.542C230.159 116.812 229.97 117.055 229.699 117.271C229.105 117.757 228.538 118 227.998 118C227.134 118 226.405 117.649 225.811 116.947L216.818 105.119L207.745 117.109C207.313 117.703 206.827 118 206.287 118C205.801 118 205.396 117.946 205.072 117.838C204.802 117.676 204.559 117.514 204.343 117.352C203.856 116.92 203.613 116.461 203.613 115.975C203.613 115.435 203.748 114.976 204.018 114.597L213.902 102.122ZM241.226 92.238C242.739 89.3755 245.358 87.5392 249.085 86.7291C250.165 86.4591 251.542 86.3241 253.216 86.3241C254.945 86.3241 256.619 86.8101 258.239 87.7823C259.913 88.7004 261.264 89.9156 262.29 91.4278C263.37 92.9401 264.153 94.6684 264.639 96.6127C265.125 98.557 265.368 100.582 265.368 102.689C265.368 104.795 265.098 106.82 264.558 108.765C264.072 110.655 263.289 112.329 262.209 113.787C259.886 117.028 256.565 118.648 252.244 118.648C249.922 118.648 248.059 118.297 246.654 117.595C244.278 116.353 242.469 114.786 241.226 112.896V127.559C241.226 128.316 240.956 128.883 240.416 129.261C239.93 129.639 239.363 129.828 238.715 129.828C238.067 129.828 237.473 129.639 236.933 129.261C236.447 128.883 236.204 128.316 236.204 127.559V89.3215C236.204 88.5654 236.447 87.9983 236.933 87.6203C237.473 87.2422 238.175 87.0532 239.039 87.0532C240.821 87.0532 241.551 88.7814 241.226 92.238ZM243.252 93.8582C242.55 94.9384 242.037 96.2346 241.713 97.7468C241.388 99.2591 241.226 100.852 241.226 102.527C241.226 104.147 241.415 105.686 241.794 107.144C242.172 108.603 242.766 109.899 243.576 111.033C245.304 113.571 247.788 114.841 251.029 114.841C254.215 114.841 256.592 113.517 258.158 110.871C259.454 108.657 260.102 105.848 260.102 102.446C260.102 97.0987 258.563 93.3992 255.485 91.3468C254.351 90.5907 252.865 90.2127 251.029 90.2127C249.193 90.2127 247.626 90.5367 246.33 91.1848C245.034 91.8329 244.008 92.724 243.252 93.8582ZM286.467 99.1241L290.031 99.2051V96.5316C290.031 92.319 287.655 90.2127 282.902 90.2127C280.688 90.2127 279.094 90.4017 278.122 90.7797C276.988 91.2118 275.908 91.7249 274.882 92.319C273.856 92.8591 273.099 93.1291 272.613 93.1291C272.181 93.1291 271.776 92.9671 271.398 92.643C271.074 92.265 270.912 91.8329 270.912 91.3468C270.912 90.8608 271.128 90.4287 271.56 90.0506C274.153 87.5662 277.987 86.3241 283.064 86.3241C288.735 86.3241 292.38 88.2684 294.001 92.157C294.595 93.5072 294.892 95.1004 294.892 96.9367L294.811 115.813C294.811 116.569 294.568 117.136 294.082 117.514C293.596 117.838 293.029 118 292.38 118C291.786 118 291.246 117.838 290.76 117.514C290.274 117.136 290.031 116.596 290.031 115.894V112.977C288.735 115.732 286.386 117.514 282.983 118.324C281.903 118.54 280.715 118.648 279.418 118.648C278.176 118.648 276.907 118.432 275.611 118C274.315 117.622 273.18 117.028 272.208 116.218C270.156 114.597 269.13 112.329 269.13 109.413C269.13 102.554 274.909 99.1241 286.467 99.1241ZM290.031 102.851C289.113 102.905 288.06 102.932 286.872 102.932C285.737 102.932 284.576 102.959 283.388 103.013C282.254 103.067 281.12 103.202 279.986 103.418C278.905 103.634 277.933 103.958 277.069 104.39C275.125 105.47 274.153 107.09 274.153 109.251C274.153 110.979 274.828 112.383 276.178 113.463C277.258 114.273 278.824 114.732 280.877 114.841C283.361 114.841 285.467 114.057 287.196 112.491C288.978 110.925 289.923 108.63 290.031 105.605V102.851ZM303.086 89.3215C303.086 88.5654 303.329 87.9983 303.815 87.6203C304.355 87.2422 305.084 87.0532 306.002 87.0532C307.73 87.0532 308.433 88.7544 308.109 92.157C309.351 89.5646 311.727 87.7553 315.238 86.7291C316.318 86.4591 317.506 86.3241 318.802 86.3241C320.098 86.3241 321.395 86.5671 322.691 87.0532C324.041 87.4852 325.229 88.1873 326.255 89.1595C328.47 91.2658 329.577 94.3713 329.577 98.4759V115.651C329.577 116.461 329.307 117.055 328.767 117.433C328.227 117.811 327.633 118 326.985 118C326.39 118 325.823 117.811 325.283 117.433C324.797 117.001 324.554 116.407 324.554 115.651V98.0709C324.554 94.2903 323.069 91.8329 320.098 90.6987C319.234 90.3747 318.235 90.2127 317.101 90.2127C316.021 90.2127 314.914 90.4287 313.779 90.8608C312.645 91.2928 311.673 91.8599 310.863 92.562C309.027 94.1823 308.109 96.6667 308.109 100.015V115.651C308.109 116.461 307.839 117.055 307.298 117.433C306.758 117.811 306.164 118 305.516 118C304.868 118 304.301 117.811 303.815 117.433C303.329 117.001 303.086 116.407 303.086 115.651V89.3215ZM362.64 118C361.127 118 360.263 117.244 360.047 115.732V112.815C358.589 114.922 356.942 116.434 355.105 117.352C353.269 118.216 351.19 118.648 348.867 118.648C346.599 118.648 344.628 118.189 342.954 117.271C341.333 116.353 340.01 115.138 338.984 113.625C336.932 110.493 335.905 106.739 335.905 102.365C335.905 97.8819 336.959 94.1823 339.065 91.2658C341.333 87.9713 344.655 86.3241 349.03 86.3241C352.486 86.3241 355.484 87.3772 358.022 89.4835C358.832 90.1857 359.507 91.0228 360.047 91.9949V75.7114C360.047 74.9553 360.29 74.3882 360.776 74.0101C361.316 73.6321 361.911 73.443 362.559 73.443C363.207 73.443 363.774 73.6591 364.26 74.0911C364.8 74.4692 365.07 75.0093 365.07 75.7114V115.651C365.07 116.461 364.8 117.055 364.26 117.433C363.774 117.811 363.234 118 362.64 118ZM354.943 91.1848C353.701 90.5367 352.189 90.2127 350.407 90.2127C348.678 90.2127 347.22 90.5637 346.032 91.2658C344.844 91.9679 343.899 92.8861 343.197 94.0203C341.846 96.1806 341.171 98.881 341.171 102.122C341.171 108.549 343.062 112.599 346.842 114.273C347.706 114.651 348.921 114.841 350.488 114.841C352.054 114.841 353.485 114.489 354.781 113.787C356.078 113.085 357.104 112.167 357.86 111.033C359.264 108.873 359.966 105.848 359.966 101.959C359.966 96.5586 358.292 92.9671 354.943 91.1848ZM400.67 101.554C400.67 102.041 400.508 102.473 400.184 102.851C399.859 103.175 399.346 103.337 398.644 103.337H376.285C376.393 107.333 377.446 110.223 379.444 112.005C381.551 113.895 383.981 114.841 386.735 114.841C389.652 114.841 392.757 113.76 396.052 111.6C396.484 111.276 396.916 111.114 397.348 111.114C397.834 111.114 398.212 111.276 398.482 111.6C398.752 111.924 398.887 112.248 398.887 112.572C398.887 113.22 398.671 113.76 398.239 114.192C395.053 117.163 391.083 118.648 386.33 118.648C381.902 118.648 378.31 117.217 375.556 114.354C372.531 111.276 371.019 107.333 371.019 102.527C371.019 98.0439 372.288 94.2903 374.827 91.2658C377.581 87.9713 381.254 86.3241 385.844 86.3241C390.651 86.3241 394.351 87.7823 396.943 90.6987C399.319 93.3992 400.562 97.0177 400.67 101.554ZM395.728 100.096C395.512 97.0717 394.594 94.6684 392.973 92.8861C391.353 91.1038 389.004 90.2127 385.925 90.2127C383.225 90.2127 381.011 91.1848 379.282 93.1291C377.608 95.0194 376.663 97.3418 376.447 100.096H395.728ZM409.669 87.0532C411.235 87.0532 412.019 87.8363 412.019 89.4025V92.157C413.369 88.2684 416.204 86.3241 420.525 86.3241C421.335 86.3241 421.956 86.5671 422.388 87.0532C422.82 87.4852 423.036 87.9713 423.036 88.5114C423.036 89.0515 422.82 89.5376 422.388 89.9696C422.01 90.4017 421.254 90.6177 420.12 90.6177C418.986 90.6177 417.878 90.8608 416.798 91.3468C415.772 91.7789 414.908 92.4 414.206 93.2101C412.748 94.9924 412.019 97.3688 412.019 100.339V115.651C412.019 116.407 411.748 117.001 411.208 117.433C410.668 117.811 410.155 118 409.669 118C409.183 118 408.778 117.973 408.454 117.919C408.184 117.811 407.941 117.676 407.725 117.514C407.239 117.082 406.996 116.461 406.996 115.651V89.4025C406.996 88.6464 407.239 88.0793 407.725 87.7013C408.265 87.2692 408.913 87.0532 409.669 87.0532Z" fill="black"/>
    <path d="M63.5949 92.217H63.6557L68.6684 77.9993C68.8304 77.5335 69.1443 77.3006 69.6101 77.3006C69.9949 77.3006 70.2886 77.4828 70.4911 77.8474C70.5519 77.9487 70.5823 78.0499 70.5823 78.1512C70.5823 78.2525 70.562 78.3639 70.5215 78.4854L65.2658 92.7639C64.9823 93.5942 64.4051 94.0094 63.5342 94.0094C63.1696 94.0094 62.8456 93.9284 62.562 93.7664C62.2785 93.5841 62.0456 93.2499 61.8633 92.7639L56.5772 78.5765C56.5367 78.4955 56.5165 78.3942 56.5165 78.2727C56.5165 78.1309 56.5468 77.9993 56.6076 77.8778C56.6684 77.7563 56.7494 77.6449 56.8506 77.5436C57.0329 77.3816 57.2557 77.3006 57.519 77.3006C58.0253 77.3006 58.3595 77.5234 58.5215 77.9689L63.5949 92.217ZM77.9353 86.9309L79.272 86.9613V85.9588C79.272 84.3791 78.3808 83.5892 76.5986 83.5892C75.7682 83.5892 75.1707 83.6601 74.8062 83.8018C74.3808 83.9639 73.9758 84.1563 73.591 84.3791C73.2062 84.5816 72.9226 84.6828 72.7403 84.6828C72.5783 84.6828 72.4264 84.6221 72.2846 84.5006C72.1631 84.3588 72.1024 84.1968 72.1024 84.0145C72.1024 83.8322 72.1834 83.6702 72.3454 83.5284C73.3175 82.5968 74.7555 82.1309 76.6593 82.1309C78.7859 82.1309 80.153 82.8601 80.7606 84.3183C80.9834 84.8246 81.0948 85.4221 81.0948 86.1107L81.0644 93.1892C81.0644 93.4727 80.9732 93.6854 80.791 93.8272C80.6087 93.9487 80.396 94.0094 80.153 94.0094C79.9302 94.0094 79.7277 93.9487 79.5454 93.8272C79.3631 93.6854 79.272 93.4828 79.272 93.2196V92.1259C78.7859 93.1588 77.9049 93.8272 76.6289 94.1309C76.2239 94.212 75.7783 94.2525 75.2922 94.2525C74.8264 94.2525 74.3505 94.1715 73.8644 94.0094C73.3783 93.8677 72.953 93.6449 72.5884 93.3411C71.8188 92.7335 71.434 91.8828 71.434 90.7892C71.434 88.217 73.6011 86.9309 77.9353 86.9309ZM79.272 88.3284C78.9277 88.3487 78.5327 88.3588 78.0872 88.3588C77.6619 88.3588 77.2264 88.3689 76.7808 88.3892C76.3555 88.4094 75.9302 88.4601 75.5049 88.5411C75.0998 88.6221 74.7353 88.7436 74.4112 88.9056C73.6821 89.3107 73.3175 89.9183 73.3175 90.7284C73.3175 91.3765 73.5707 91.9031 74.077 92.3082C74.4821 92.612 75.0694 92.7841 75.8391 92.8246C76.7707 92.8246 77.5606 92.5309 78.2087 91.9436C78.877 91.3563 79.2315 90.4955 79.272 89.3613V88.3284ZM88.3295 83.5892C86.5675 83.5892 85.6865 84.1461 85.6865 85.2601C85.6865 85.7461 85.9295 86.1309 86.4156 86.4145C86.7801 86.5968 87.5295 86.8297 88.6637 87.1132C89.7979 87.3765 90.6586 87.5993 91.246 87.7816C91.8333 87.9639 92.3194 88.298 92.7042 88.7841C93.089 89.2702 93.2814 89.8474 93.2814 90.5158C93.2814 91.1639 93.1396 91.7309 92.8561 92.217C92.5725 92.6828 92.1877 93.0677 91.7017 93.3715C90.7903 93.9588 89.6054 94.2525 88.1472 94.2525C87.0333 94.2525 86.0105 94.0702 85.0789 93.7056C84.6535 93.5234 84.3092 93.3208 84.046 93.098C83.7827 92.8753 83.651 92.6727 83.651 92.4904C83.651 92.2879 83.7219 92.1259 83.8637 92.0044C84.0054 91.8626 84.1675 91.7917 84.3498 91.7917C84.532 91.7917 84.7447 91.8525 84.9877 91.974C85.2308 92.0753 85.5244 92.1866 85.8687 92.3082C86.8004 92.6525 87.5599 92.8246 88.1472 92.8246C88.7346 92.8246 89.2004 92.7841 89.5447 92.7031C89.889 92.6221 90.2029 92.4904 90.4865 92.3082C91.0941 91.9234 91.3979 91.3968 91.3979 90.7284C91.3979 89.9588 90.8611 89.3917 89.7877 89.0272C89.3827 88.8854 88.9472 88.774 88.4814 88.693C88.0156 88.5917 87.5599 88.4904 87.1143 88.3892C86.6687 88.2879 86.2434 88.1664 85.8384 88.0246C85.4535 87.8828 85.0991 87.6904 84.7751 87.4474C84.1067 86.9613 83.7725 86.2626 83.7725 85.3512C83.7725 84.2373 84.2485 83.3968 85.2004 82.8297C85.9903 82.3639 87.0535 82.1309 88.3903 82.1309C89.6865 82.1309 90.7396 82.3436 91.5498 82.7689C92.2181 83.1132 92.5523 83.4778 92.5523 83.8626C92.5523 84.0246 92.4814 84.1664 92.3396 84.2879C92.1979 84.4094 92.0561 84.4702 91.9143 84.4702C91.651 84.4702 91.4282 84.4196 91.246 84.3183C91.0839 84.1968 90.9017 84.0955 90.6991 84.0145C90.5168 83.9132 90.3042 83.8322 90.0611 83.7715C89.5953 83.6499 89.0181 83.5892 88.3295 83.5892ZM97.9052 78.3639C97.9052 78.6474 97.7938 78.9006 97.571 79.1234C97.3482 79.3259 97.0343 79.4272 96.6292 79.4272C96.2242 79.4272 95.9103 79.3259 95.6875 79.1234C95.4647 78.9006 95.3533 78.6474 95.3533 78.3639C95.3533 78.0803 95.4647 77.8272 95.6875 77.6044C95.9103 77.3816 96.2242 77.2702 96.6292 77.2702C97.0343 77.2702 97.3482 77.3816 97.571 77.6044C97.7938 77.8272 97.9052 78.0803 97.9052 78.3639ZM95.7179 83.3461C95.7179 83.0423 95.809 82.8094 95.9913 82.6474C96.1938 82.4854 96.3862 82.4044 96.5685 82.4044C96.7508 82.4044 96.8925 82.4246 96.9938 82.4651C97.0951 82.5056 97.1862 82.5664 97.2672 82.6474C97.4698 82.7892 97.571 83.0221 97.571 83.3461V93.0677C97.571 93.3715 97.4698 93.6044 97.2672 93.7664C97.0647 93.9284 96.8419 94.0094 96.5989 94.0094C96.3761 94.0094 96.1735 93.9385 95.9913 93.7968C95.809 93.6347 95.7179 93.3917 95.7179 93.0677V83.3461ZM100.769 78.2423C100.769 77.9385 100.86 77.7056 101.043 77.5436C101.245 77.3816 101.437 77.3006 101.62 77.3006C101.802 77.3006 101.944 77.3208 102.045 77.3613C102.146 77.4018 102.237 77.4626 102.318 77.5436C102.521 77.7056 102.622 77.9385 102.622 78.2423V93.0677C102.622 93.3715 102.521 93.6044 102.318 93.7664C102.116 93.9284 101.893 94.0094 101.65 94.0094C101.427 94.0094 101.225 93.9385 101.043 93.7968C100.86 93.6347 100.769 93.3917 100.769 93.0677V78.2423ZM104.97 88.2373C104.97 87.5082 105.081 86.7689 105.304 86.0196C105.547 85.2702 105.911 84.612 106.398 84.0449C107.451 82.7689 108.909 82.1309 110.772 82.1309C112.595 82.1309 114.053 82.7689 115.147 84.0449C116.099 85.1588 116.575 86.5461 116.575 88.2069C116.575 89.8474 116.099 91.2347 115.147 92.3689C114.074 93.6246 112.615 94.2525 110.772 94.2525C108.889 94.2525 107.43 93.6246 106.398 92.3689C105.446 91.2145 104.97 89.8373 104.97 88.2373ZM106.975 88.2373C106.975 88.7234 107.046 89.2398 107.187 89.7866C107.329 90.3335 107.552 90.8297 107.856 91.2753C108.565 92.3082 109.537 92.8246 110.772 92.8246C112.028 92.8246 113 92.3082 113.689 91.2753C114.256 90.4044 114.539 89.3816 114.539 88.2069C114.539 87.0525 114.256 86.0297 113.689 85.1385C113.02 84.1056 112.048 83.5892 110.772 83.5892C109.517 83.5892 108.544 84.1056 107.856 85.1385C107.268 86.0094 106.975 87.0423 106.975 88.2373ZM124.821 92.5816C124.618 93.0879 124.396 93.4525 124.152 93.6753C123.93 93.898 123.606 94.0094 123.18 94.0094C122.775 94.0094 122.451 93.898 122.208 93.6753C121.965 93.4525 121.742 93.0879 121.54 92.5816L117.773 83.5892C117.732 83.4677 117.712 83.3563 117.712 83.255C117.712 83.1335 117.732 83.0221 117.773 82.9208C117.833 82.7993 117.915 82.7082 118.016 82.6474C118.198 82.4854 118.401 82.4044 118.623 82.4044C119.049 82.4044 119.342 82.5968 119.504 82.9816L123.18 91.8525L126.704 82.9816C126.866 82.5968 127.15 82.4044 127.555 82.4044C128.001 82.4044 128.304 82.5664 128.466 82.8904C128.507 82.9917 128.527 83.1031 128.527 83.2246C128.527 83.3461 128.507 83.4677 128.466 83.5892L124.821 92.5816ZM129.65 88.2373C129.65 87.5082 129.762 86.7689 129.985 86.0196C130.228 85.2702 130.592 84.612 131.078 84.0449C132.131 82.7689 133.59 82.1309 135.453 82.1309C137.276 82.1309 138.734 82.7689 139.828 84.0449C140.779 85.1588 141.255 86.5461 141.255 88.2069C141.255 89.8474 140.779 91.2347 139.828 92.3689C138.754 93.6246 137.296 94.2525 135.453 94.2525C133.569 94.2525 132.111 93.6246 131.078 92.3689C130.126 91.2145 129.65 89.8373 129.65 88.2373ZM131.655 88.2373C131.655 88.7234 131.726 89.2398 131.868 89.7866C132.01 90.3335 132.233 90.8297 132.536 91.2753C133.245 92.3082 134.217 92.8246 135.453 92.8246C136.709 92.8246 137.681 92.3082 138.369 91.2753C138.936 90.4044 139.22 89.3816 139.22 88.2069C139.22 87.0525 138.936 86.0297 138.369 85.1385C137.701 84.1056 136.729 83.5892 135.453 83.5892C134.197 83.5892 133.225 84.1056 132.536 85.1385C131.949 86.0094 131.655 87.0423 131.655 88.2373Z" fill="black"/>
    <path d="M93.1333 240.946C93.2039 241.015 93.2595 241.084 93.3 241.154C93.3338 241.213 93.3475 241.29 93.3412 241.388C93.3467 241.478 93.3336 241.563 93.3022 241.644C93.2393 241.805 93.1376 241.926 92.9973 242.007C92.7167 242.169 92.4621 242.16 92.2335 241.98L90.1184 240.302L85.33 243.066L85.7263 245.737C85.7794 246.018 85.6832 246.23 85.4377 246.372C85.1804 246.52 84.9384 246.52 84.7117 246.37C84.6361 246.32 84.5814 246.266 84.5477 246.207C84.5072 246.137 84.475 246.054 84.4511 245.959L83.1242 236.248C82.9953 235.512 83.0684 235.017 83.3436 234.765C83.4237 234.688 83.5222 234.615 83.6391 234.548C83.8847 234.406 84.0929 234.348 84.2639 234.374C84.6008 234.444 84.9634 234.64 85.3517 234.962L93.1333 240.946ZM85.1542 241.952L89.2585 239.582L84.1988 235.557L85.1542 241.952ZM97.9979 238.582C98.2072 238.945 97.8968 239.365 97.0665 239.845C96.4351 240.209 95.8904 240.306 95.4324 240.133C94.9425 239.933 94.4545 239.412 93.9684 238.57L91.8115 234.834L91.0047 235.3C90.8643 235.381 90.7296 235.404 90.6005 235.369C90.4831 235.328 90.394 235.255 90.3333 235.15C90.2725 235.044 90.2536 234.93 90.2765 234.808C90.2994 234.686 90.3868 234.581 90.5388 234.493L91.3807 234.007L90.3646 232.044C90.2953 231.897 90.2897 231.752 90.3476 231.61C90.4056 231.467 90.4931 231.362 90.61 231.295C90.914 231.119 91.1504 231.178 91.3192 231.47L92.4331 233.399L93.6434 232.701C93.7837 232.62 93.9126 232.6 94.03 232.641C94.1591 232.676 94.254 232.746 94.3148 232.851C94.3755 232.956 94.3886 233.073 94.354 233.202C94.3311 233.325 94.2495 233.426 94.1092 233.507L92.899 234.206L94.7116 237.346C95.2044 238.199 95.5375 238.709 95.7107 238.874C95.8889 239.02 96.0508 239.098 96.1966 239.108C96.354 239.11 96.5321 239.054 96.7309 238.939L97.4095 238.454C97.5382 238.38 97.6553 238.367 97.7611 238.415C97.8785 238.456 97.9574 238.512 97.9979 238.582ZM102.497 235.984C102.707 236.347 102.396 236.768 101.566 237.247C100.935 237.612 100.39 237.708 99.932 237.536C99.4421 237.335 98.9541 236.814 98.468 235.972L96.311 232.236L95.5042 232.702C95.3639 232.783 95.2292 232.806 95.1001 232.772C94.9826 232.73 94.8936 232.657 94.8328 232.552C94.772 232.446 94.7531 232.333 94.776 232.21C94.7989 232.088 94.8864 231.983 95.0384 231.895L95.8803 231.409L94.8642 229.447C94.7949 229.3 94.7892 229.155 94.8472 229.012C94.9052 228.869 94.9926 228.764 95.1095 228.697C95.4136 228.521 95.65 228.58 95.8187 228.872L96.9327 230.801L98.1429 230.103C98.2832 230.022 98.4121 230.002 98.5295 230.043C98.6586 230.078 98.7536 230.148 98.8143 230.253C98.8751 230.358 98.8882 230.475 98.8536 230.604C98.8307 230.727 98.7491 230.829 98.6087 230.91L97.3985 231.608L99.2112 234.748C99.704 235.601 100.037 236.111 100.21 236.276C100.388 236.422 100.55 236.5 100.696 236.51C100.854 236.512 101.032 236.456 101.23 236.342L101.909 235.856C102.038 235.782 102.155 235.769 102.261 235.817C102.378 235.858 102.457 235.914 102.497 235.984ZM104.502 229.916L105.284 229.488L104.95 228.909C104.423 227.997 103.645 227.838 102.616 228.432C102.137 228.709 101.816 228.949 101.652 229.152C101.461 229.388 101.291 229.634 101.143 229.891C100.989 230.136 100.859 230.289 100.753 230.349C100.66 230.403 100.552 230.419 100.43 230.396C100.312 230.355 100.223 230.282 100.162 230.176C100.102 230.071 100.094 229.95 100.141 229.815C100.391 228.953 101.066 228.204 102.165 227.57C103.393 226.861 104.426 226.826 105.262 227.466C105.56 227.684 105.823 227.991 106.053 228.389L108.395 232.486C108.489 232.65 108.508 232.803 108.45 232.945C108.385 233.076 108.282 233.182 108.142 233.263C108.013 233.338 107.876 233.37 107.73 233.361C107.578 233.34 107.458 233.253 107.37 233.101L107.006 232.47C107.069 233.228 106.783 233.907 106.148 234.508C105.941 234.69 105.697 234.862 105.417 235.024C105.148 235.179 104.846 235.291 104.511 235.36C104.183 235.44 103.864 235.453 103.552 235.399C102.905 235.305 102.399 234.942 102.035 234.31C101.177 232.825 102 231.361 104.502 229.916ZM105.74 230.277C105.548 230.404 105.323 230.541 105.066 230.69C104.82 230.831 104.572 230.982 104.322 231.143C104.083 231.296 103.854 231.467 103.636 231.656C103.429 231.837 103.259 232.029 103.126 232.231C102.84 232.707 102.832 233.18 103.102 233.647C103.318 234.022 103.64 234.241 104.067 234.306C104.402 234.347 104.799 234.25 105.256 234.017C105.794 233.707 106.152 233.274 106.331 232.719C106.521 232.157 106.439 231.542 106.084 230.873L105.74 230.277ZM108.087 228.828C107.513 227.834 107.312 226.851 107.484 225.879C107.682 224.845 108.272 224.044 109.254 223.477C109.745 223.194 110.176 223.023 110.548 222.964C111.249 222.855 111.671 222.924 111.812 223.169C111.873 223.275 111.892 223.388 111.869 223.511C111.846 223.633 111.788 223.721 111.695 223.775C111.613 223.823 111.536 223.851 111.464 223.862C110.859 223.868 110.358 223.986 109.961 224.215C109.568 224.426 109.274 224.674 109.08 224.958C108.885 225.242 108.758 225.549 108.699 225.879C108.585 226.599 108.758 227.357 109.217 228.152C109.636 228.877 110.139 229.398 110.726 229.713C111.42 230.077 112.146 230.039 112.906 229.601C113.362 229.337 113.787 228.897 114.179 228.281C114.337 228.096 114.484 228.027 114.62 228.073C114.768 228.113 114.879 228.197 114.953 228.325C115.021 228.442 115.012 228.603 114.928 228.808C114.843 229.013 114.713 229.22 114.538 229.43C113.689 230.388 112.746 230.917 111.712 231.015C110.749 231.103 109.865 230.787 109.06 230.067C108.688 229.721 108.364 229.308 108.087 228.828ZM115.817 224.015L117.589 227.084C117.69 227.259 117.71 227.428 117.647 227.589C117.584 227.75 117.482 227.871 117.342 227.952C117.213 228.026 117.067 228.056 116.903 228.042C116.743 228.009 116.61 227.899 116.502 227.712L111.56 219.152C111.459 218.977 111.44 218.809 111.502 218.648C111.565 218.487 111.644 218.379 111.737 218.325C111.842 218.264 111.931 218.229 112.003 218.218C112.087 218.201 112.165 218.203 112.239 218.222C112.424 218.272 112.56 218.373 112.647 218.525L115.604 223.646L117.178 219.323C117.222 219.157 117.309 219.037 117.437 218.963C117.566 218.889 117.701 218.866 117.842 218.893C117.982 218.921 118.076 218.976 118.124 219.058C118.218 219.222 118.239 219.366 118.186 219.49L116.828 223.174L121.537 224.524C121.68 224.582 121.771 224.646 121.812 224.716C121.852 224.787 121.872 224.861 121.87 224.94C121.881 225.012 121.876 225.085 121.856 225.158C121.793 225.319 121.698 225.437 121.569 225.511C121.452 225.579 121.301 225.588 121.117 225.538L115.817 224.015Z" fill="black"/>
    <path d="M211.656 245.668C211.388 245.823 211.139 245.811 210.91 245.631C210.835 245.581 210.773 245.515 210.726 245.433L205.825 236.944C205.669 236.675 205.688 236.423 205.879 236.188C205.936 236.124 206.005 236.068 206.087 236.021L208.385 234.695C210.945 233.216 213.089 233.202 214.815 234.653C215.389 235.133 215.905 235.771 216.364 236.566C216.816 237.349 217.098 238.107 217.208 238.838C217.33 239.563 217.284 240.252 217.069 240.906C216.641 242.244 215.615 243.383 213.989 244.321L211.656 245.668ZM211.706 244.377L213.565 243.303C214.84 242.567 215.59 241.666 215.817 240.6C216.037 239.631 215.786 238.521 215.063 237.27C214.321 235.984 213.394 235.217 212.285 234.969C211.254 234.722 210.083 234.977 208.774 235.733L207.23 236.624L211.706 244.377ZM224.676 233.404C224.737 233.509 224.756 233.623 224.733 233.745C224.703 233.856 224.612 233.955 224.46 234.043L219.619 236.838C220.142 237.689 220.732 238.183 221.387 238.319C222.079 238.465 222.724 238.366 223.32 238.022C223.952 237.657 224.489 237.035 224.932 236.156C224.985 236.032 225.058 235.943 225.152 235.889C225.257 235.828 225.359 235.816 225.458 235.852C225.557 235.888 225.627 235.942 225.668 236.012C225.749 236.152 225.769 236.296 225.73 236.444C225.411 237.485 224.737 238.303 223.708 238.897C222.75 239.451 221.793 239.59 220.839 239.314C219.799 239.026 218.979 238.361 218.378 237.32C217.818 236.35 217.623 235.379 217.795 234.406C217.979 233.349 218.569 232.533 219.563 231.959C220.603 231.358 221.587 231.212 222.512 231.519C223.364 231.807 224.086 232.435 224.676 233.404ZM223.424 233.706C222.999 233.078 222.5 232.672 221.926 232.489C221.353 232.306 220.733 232.406 220.066 232.791C219.482 233.129 219.124 233.616 218.993 234.253C218.866 234.871 218.952 235.492 219.25 236.116L223.424 233.706ZM225.729 233.077C225.155 232.083 224.954 231.1 225.125 230.127C225.323 229.093 225.914 228.293 226.896 227.726C227.387 227.442 227.818 227.271 228.19 227.212C228.891 227.104 229.312 227.172 229.454 227.418C229.515 227.523 229.534 227.637 229.511 227.759C229.488 227.881 229.43 227.97 229.336 228.024C229.255 228.071 229.178 228.1 229.106 228.11C228.501 228.116 228 228.234 227.602 228.463C227.21 228.675 226.916 228.922 226.721 229.206C226.527 229.49 226.4 229.797 226.341 230.127C226.227 230.848 226.4 231.606 226.859 232.401C227.277 233.126 227.78 233.646 228.368 233.962C229.061 234.325 229.788 234.288 230.548 233.849C231.004 233.586 231.428 233.146 231.821 232.529C231.979 232.344 232.126 232.275 232.262 232.321C232.41 232.361 232.52 232.445 232.595 232.574C232.662 232.691 232.654 232.851 232.569 233.056C232.485 233.261 232.355 233.468 232.18 233.678C231.33 234.637 230.388 235.165 229.354 235.263C228.391 235.352 227.507 235.036 226.702 234.316C226.33 233.969 226.006 233.556 225.729 233.077ZM235.202 226.625L235.984 226.197L235.65 225.618C235.124 224.706 234.346 224.547 233.317 225.141C232.837 225.418 232.516 225.658 232.353 225.861C232.161 226.096 231.992 226.343 231.844 226.599C231.689 226.845 231.559 226.998 231.454 227.058C231.36 227.112 231.252 227.128 231.13 227.105C231.013 227.064 230.923 226.99 230.863 226.885C230.802 226.78 230.795 226.659 230.841 226.524C231.092 225.662 231.767 224.913 232.866 224.279C234.094 223.57 235.126 223.535 235.963 224.175C236.26 224.393 236.524 224.7 236.753 225.098L239.095 229.195C239.19 229.359 239.208 229.512 239.15 229.654C239.085 229.785 238.983 229.891 238.842 229.972C238.714 230.046 238.577 230.079 238.431 230.07C238.278 230.048 238.158 229.962 238.07 229.81L237.706 229.178C237.77 229.937 237.484 230.616 236.848 231.217C236.641 231.399 236.398 231.571 236.117 231.733C235.848 231.888 235.546 232 235.212 232.068C234.884 232.149 234.564 232.162 234.252 232.108C233.605 232.014 233.1 231.651 232.735 231.019C231.878 229.534 232.7 228.069 235.202 226.625ZM236.44 226.986C236.248 227.112 236.023 227.25 235.766 227.398C235.521 227.54 235.273 227.691 235.022 227.851C234.783 228.005 234.555 228.176 234.336 228.364C234.129 228.546 233.959 228.738 233.826 228.939C233.54 229.416 233.532 229.889 233.802 230.356C234.018 230.731 234.34 230.95 234.767 231.015C235.102 231.056 235.499 230.959 235.957 230.726C236.495 230.416 236.853 229.983 237.031 229.428C237.221 228.866 237.139 228.251 236.784 227.582L236.44 226.986ZM243.049 227.45L237.013 223.03C236.944 222.992 236.895 222.935 236.866 222.858C236.731 222.624 236.763 222.395 236.961 222.171C237.018 222.108 237.093 222.049 237.187 221.995C237.409 221.866 237.631 221.886 237.852 222.054L242.894 225.926L242.045 219.634C242.008 219.328 242.102 219.126 242.326 219.028C242.466 218.947 242.616 218.922 242.775 218.955C242.939 218.97 243.055 219.035 243.123 219.152C243.183 219.257 243.213 219.349 243.212 219.428L244.589 229.671C244.614 229.984 244.521 230.202 244.31 230.323C244.088 230.452 243.861 230.45 243.629 230.319C243.561 230.281 243.506 230.226 243.465 230.156C243.425 230.086 243.396 230.009 243.379 229.925L243.049 227.45Z" fill="black"/>
</svg>