<svg width="800" height="600" viewBox="0 0 800 600" fill="none"
    xmlns="http://www.w3.org/2000/svg">
    <rect width="800" height="600" fill="#D9D9D9"/>
    <path d="M159.289 64.7038C159.289 65.892 159.64 66.9722 160.342 67.9443C161.098 68.9165 162.07 69.7536 163.258 70.4557C164.446 71.1038 165.797 71.6709 167.309 72.157C168.821 72.643 170.414 73.1561 172.089 73.6962C173.817 74.2363 175.464 74.8304 177.03 75.4785C178.651 76.1266 180.082 76.9367 181.324 77.9089C184.024 80.0152 185.375 82.9046 185.375 86.5772C185.375 88.3055 184.943 89.9527 184.078 91.519C183.268 93.0312 182.107 94.3274 180.595 95.4076C177.57 97.5679 173.601 98.6481 168.686 98.6481C163.663 98.6481 159.478 97.4599 156.129 95.0835C154.077 93.7333 152.997 92.7882 152.889 92.2481C152.835 92.0321 152.808 91.816 152.808 91.6C152.808 91.33 152.862 91.0329 152.97 90.7089C153.078 90.3848 153.213 90.1148 153.375 89.8987C153.861 89.3046 154.293 89.0076 154.671 89.0076C155.103 89.0076 155.508 89.1426 155.886 89.4127C156.264 89.6827 156.696 90.0068 157.182 90.3848C157.722 90.7629 158.37 91.1949 159.127 91.681C159.937 92.1671 160.828 92.5992 161.8 92.9772C163.96 93.7333 166.04 94.1114 168.038 94.1114C170.09 94.1114 171.765 93.9764 173.061 93.7063C174.411 93.3823 175.572 92.8962 176.544 92.2481C178.597 90.8439 179.623 89.0616 179.623 86.9013C179.623 83.1747 176.922 80.4743 171.522 78.8C170.009 78.3139 168.416 77.8278 166.742 77.3418C165.122 76.8017 163.501 76.1806 161.881 75.4785C160.261 74.7764 158.83 73.9392 157.587 72.9671C156.345 71.9949 155.346 70.8338 154.59 69.4835C153.888 68.0793 153.537 66.5131 153.537 64.7848C153.537 63.0565 153.969 61.4363 154.833 59.924C155.697 58.4118 156.831 57.1696 158.235 56.1975C161.152 54.0911 164.743 53.038 169.01 53.038C175.113 53.038 180.055 55.0363 183.835 59.0329C184.105 59.303 184.241 59.654 184.241 60.0861C184.241 60.5181 184.186 60.8692 184.078 61.1392C184.024 61.4093 183.916 61.6523 183.754 61.8684C183.376 62.4084 182.863 62.6785 182.215 62.6785C181.567 62.6785 180.865 62.3004 180.109 61.5443C178.435 60.3021 177.03 59.438 175.896 58.9519C173.898 58.1418 171.765 57.7367 169.496 57.7367C166.796 57.7367 164.5 58.3038 162.61 59.438C160.396 60.6802 159.289 62.4354 159.289 64.7038ZM198.245 56.2785C198.245 57.0346 197.948 57.7097 197.354 58.3038C196.759 58.8439 195.922 59.1139 194.842 59.1139C193.762 59.1139 192.925 58.8439 192.331 58.3038C191.737 57.7097 191.44 57.0346 191.44 56.2785C191.44 55.5224 191.737 54.8473 192.331 54.2532C192.925 53.6591 193.762 53.362 194.842 53.362C195.922 53.362 196.759 53.6591 197.354 54.2532C197.948 54.8473 198.245 55.5224 198.245 56.2785ZM192.412 69.5646C192.412 68.7544 192.655 68.1333 193.141 67.7013C193.681 67.2692 194.194 67.0532 194.68 67.0532C195.166 67.0532 195.544 67.1072 195.814 67.2152C196.084 67.3232 196.327 67.4852 196.543 67.7013C197.084 68.0793 197.354 68.7004 197.354 69.5646V95.4886C197.354 96.2987 197.084 96.9198 196.543 97.3519C196.003 97.784 195.409 98 194.761 98C194.167 98 193.627 97.811 193.141 97.4329C192.655 97.0008 192.412 96.3527 192.412 95.4886V69.5646ZM213.902 82.1215L204.91 70.8608C204.586 70.4287 204.424 70.0236 204.424 69.6456C204.424 69.2135 204.505 68.8624 204.667 68.5924C204.829 68.2684 205.045 67.9983 205.315 67.7823C205.855 67.2962 206.368 67.0532 206.854 67.0532C207.772 67.0532 208.528 67.4042 209.122 68.1063L217.386 78.962L225.811 67.9443C226.297 67.3502 226.864 67.0532 227.512 67.0532C228.16 67.0532 228.7 67.2692 229.132 67.7013C229.618 68.0793 229.862 68.5384 229.862 69.0785C229.862 69.5646 229.699 69.9966 229.375 70.3747L220.383 82.0405L230.024 94.2734C230.348 94.7055 230.51 95.1105 230.51 95.4886C230.51 95.8667 230.429 96.2177 230.267 96.5418C230.159 96.8118 229.97 97.0549 229.699 97.2709C229.105 97.757 228.538 98 227.998 98C227.134 98 226.405 97.6489 225.811 96.9468L216.818 85.119L207.745 97.1089C207.313 97.703 206.827 98 206.287 98C205.801 98 205.396 97.946 205.072 97.838C204.802 97.6759 204.559 97.5139 204.343 97.3519C203.856 96.9198 203.613 96.4608 203.613 95.9747C203.613 95.4346 203.748 94.9755 204.018 94.5975L213.902 82.1215ZM241.226 72.238C242.739 69.3755 245.358 67.5392 249.085 66.7291C250.165 66.4591 251.542 66.3241 253.216 66.3241C254.945 66.3241 256.619 66.8101 258.239 67.7823C259.913 68.7004 261.264 69.9156 262.29 71.4278C263.37 72.9401 264.153 74.6684 264.639 76.6127C265.125 78.557 265.368 80.5823 265.368 82.6886C265.368 84.7949 265.098 86.8203 264.558 88.7646C264.072 90.6549 263.289 92.3291 262.209 93.7873C259.886 97.0278 256.565 98.6481 252.244 98.6481C249.922 98.6481 248.059 98.297 246.654 97.5949C244.278 96.3527 242.469 94.7865 241.226 92.8962V107.559C241.226 108.316 240.956 108.883 240.416 109.261C239.93 109.639 239.363 109.828 238.715 109.828C238.067 109.828 237.473 109.639 236.933 109.261C236.447 108.883 236.204 108.316 236.204 107.559V69.3215C236.204 68.5654 236.447 67.9983 236.933 67.6203C237.473 67.2422 238.175 67.0532 239.039 67.0532C240.821 67.0532 241.551 68.7814 241.226 72.238ZM243.252 73.8582C242.55 74.9384 242.037 76.2346 241.713 77.7468C241.388 79.2591 241.226 80.8523 241.226 82.5266C241.226 84.1468 241.415 85.6861 241.794 87.1443C242.172 88.6025 242.766 89.8987 243.576 91.0329C245.304 93.5713 247.788 94.8405 251.029 94.8405C254.215 94.8405 256.592 93.5173 258.158 90.8709C259.454 88.6565 260.102 85.8481 260.102 82.4456C260.102 77.0987 258.563 73.3992 255.485 71.3468C254.351 70.5907 252.865 70.2127 251.029 70.2127C249.193 70.2127 247.626 70.5367 246.33 71.1848C245.034 71.8329 244.008 72.724 243.252 73.8582ZM286.467 79.1241L290.031 79.2051V76.5316C290.031 72.319 287.655 70.2127 282.902 70.2127C280.688 70.2127 279.094 70.4017 278.122 70.7797C276.988 71.2118 275.908 71.7249 274.882 72.319C273.856 72.8591 273.099 73.1291 272.613 73.1291C272.181 73.1291 271.776 72.9671 271.398 72.643C271.074 72.265 270.912 71.8329 270.912 71.3468C270.912 70.8608 271.128 70.4287 271.56 70.0506C274.153 67.5662 277.987 66.3241 283.064 66.3241C288.735 66.3241 292.38 68.2684 294.001 72.157C294.595 73.5072 294.892 75.1004 294.892 76.9367L294.811 95.8127C294.811 96.5688 294.568 97.1359 294.082 97.5139C293.596 97.838 293.029 98 292.38 98C291.786 98 291.246 97.838 290.76 97.5139C290.274 97.1359 290.031 96.5958 290.031 95.8937V92.9772C288.735 95.7316 286.386 97.5139 282.983 98.3241C281.903 98.5401 280.715 98.6481 279.418 98.6481C278.176 98.6481 276.907 98.4321 275.611 98C274.315 97.6219 273.18 97.0278 272.208 96.2177C270.156 94.5975 269.13 92.3291 269.13 89.4127C269.13 82.5536 274.909 79.1241 286.467 79.1241ZM290.031 82.8506C289.113 82.9046 288.06 82.9316 286.872 82.9316C285.737 82.9316 284.576 82.9586 283.388 83.0127C282.254 83.0667 281.12 83.2017 279.986 83.4177C278.905 83.6338 277.933 83.9578 277.069 84.3899C275.125 85.47 274.153 87.0903 274.153 89.2506C274.153 90.9789 274.828 92.3831 276.178 93.4633C277.258 94.2734 278.824 94.7325 280.877 94.8405C283.361 94.8405 285.467 94.0574 287.196 92.4911C288.978 90.9249 289.923 88.6295 290.031 85.6051V82.8506ZM303.086 69.3215C303.086 68.5654 303.329 67.9983 303.815 67.6203C304.355 67.2422 305.084 67.0532 306.002 67.0532C307.73 67.0532 308.433 68.7544 308.109 72.157C309.351 69.5646 311.727 67.7553 315.238 66.7291C316.318 66.4591 317.506 66.3241 318.802 66.3241C320.098 66.3241 321.395 66.5671 322.691 67.0532C324.041 67.4852 325.229 68.1873 326.255 69.1595C328.47 71.2658 329.577 74.3713 329.577 78.4759V95.6506C329.577 96.4608 329.307 97.0549 328.767 97.4329C328.227 97.811 327.633 98 326.985 98C326.39 98 325.823 97.811 325.283 97.4329C324.797 97.0008 324.554 96.4068 324.554 95.6506V78.0709C324.554 74.2903 323.069 71.8329 320.098 70.6987C319.234 70.3747 318.235 70.2127 317.101 70.2127C316.021 70.2127 314.914 70.4287 313.779 70.8608C312.645 71.2928 311.673 71.8599 310.863 72.562C309.027 74.1823 308.109 76.6667 308.109 80.0152V95.6506C308.109 96.4608 307.839 97.0549 307.298 97.4329C306.758 97.811 306.164 98 305.516 98C304.868 98 304.301 97.811 303.815 97.4329C303.329 97.0008 303.086 96.4068 303.086 95.6506V69.3215ZM362.64 98C361.127 98 360.263 97.2439 360.047 95.7316V92.8152C358.589 94.9215 356.942 96.4338 355.105 97.3519C353.269 98.216 351.19 98.6481 348.867 98.6481C346.599 98.6481 344.628 98.189 342.954 97.2709C341.333 96.3527 340.01 95.1376 338.984 93.6253C336.932 90.4928 335.905 86.7392 335.905 82.3646C335.905 77.8819 336.959 74.1823 339.065 71.2658C341.333 67.9713 344.655 66.3241 349.03 66.3241C352.486 66.3241 355.484 67.3772 358.022 69.4835C358.832 70.1857 359.507 71.0228 360.047 71.9949V55.7114C360.047 54.9553 360.29 54.3882 360.776 54.0101C361.316 53.6321 361.911 53.443 362.559 53.443C363.207 53.443 363.774 53.6591 364.26 54.0911C364.8 54.4692 365.07 55.0093 365.07 55.7114V95.6506C365.07 96.4608 364.8 97.0549 364.26 97.4329C363.774 97.811 363.234 98 362.64 98ZM354.943 71.1848C353.701 70.5367 352.189 70.2127 350.407 70.2127C348.678 70.2127 347.22 70.5637 346.032 71.2658C344.844 71.9679 343.899 72.8861 343.197 74.0203C341.846 76.1806 341.171 78.881 341.171 82.1215C341.171 88.5485 343.062 92.5992 346.842 94.2734C347.706 94.6515 348.921 94.8405 350.488 94.8405C352.054 94.8405 353.485 94.4895 354.781 93.7873C356.078 93.0852 357.104 92.1671 357.86 91.0329C359.264 88.8726 359.966 85.8481 359.966 81.9595C359.966 76.5586 358.292 72.9671 354.943 71.1848ZM400.67 81.5544C400.67 82.0405 400.508 82.4726 400.184 82.8506C399.859 83.1747 399.346 83.3367 398.644 83.3367H376.285C376.393 87.3333 377.446 90.2228 379.444 92.0051C381.551 93.8954 383.981 94.8405 386.735 94.8405C389.652 94.8405 392.757 93.7603 396.052 91.6C396.484 91.2759 396.916 91.1139 397.348 91.1139C397.834 91.1139 398.212 91.2759 398.482 91.6C398.752 91.9241 398.887 92.2481 398.887 92.5722C398.887 93.2203 398.671 93.7603 398.239 94.1924C395.053 97.1629 391.083 98.6481 386.33 98.6481C381.902 98.6481 378.31 97.2169 375.556 94.3544C372.531 91.2759 371.019 87.3333 371.019 82.5266C371.019 78.0439 372.288 74.2903 374.827 71.2658C377.581 67.9713 381.254 66.3241 385.844 66.3241C390.651 66.3241 394.351 67.7823 396.943 70.6987C399.319 73.3992 400.562 77.0177 400.67 81.5544ZM395.728 80.0962C395.512 77.0717 394.594 74.6684 392.973 72.8861C391.353 71.1038 389.004 70.2127 385.925 70.2127C383.225 70.2127 381.011 71.1848 379.282 73.1291C377.608 75.0194 376.663 77.3418 376.447 80.0962H395.728ZM409.669 67.0532C411.235 67.0532 412.019 67.8363 412.019 69.4025V72.157C413.369 68.2684 416.204 66.3241 420.525 66.3241C421.335 66.3241 421.956 66.5671 422.388 67.0532C422.82 67.4852 423.036 67.9713 423.036 68.5114C423.036 69.0515 422.82 69.5376 422.388 69.9696C422.01 70.4017 421.254 70.6177 420.12 70.6177C418.986 70.6177 417.878 70.8608 416.798 71.3468C415.772 71.7789 414.908 72.4 414.206 73.2101C412.748 74.9924 412.019 77.3688 412.019 80.3392V95.6506C412.019 96.4068 411.748 97.0008 411.208 97.4329C410.668 97.811 410.155 98 409.669 98C409.183 98 408.778 97.973 408.454 97.919C408.184 97.811 407.941 97.6759 407.725 97.5139C407.239 97.0819 406.996 96.4608 406.996 95.6506V69.4025C406.996 68.6464 407.239 68.0793 407.725 67.7013C408.265 67.2692 408.913 67.0532 409.669 67.0532Z" fill="black"/>
    <path d="M63.5949 74.4623H63.6557L68.6684 60.2446C68.8304 59.7788 69.1443 59.5458 69.6101 59.5458C69.9949 59.5458 70.2886 59.7281 70.4911 60.0927C70.5519 60.1939 70.5823 60.2952 70.5823 60.3965C70.5823 60.4977 70.562 60.6091 70.5215 60.7306L65.2658 75.0091C64.9823 75.8395 64.4051 76.2547 63.5342 76.2547C63.1696 76.2547 62.8456 76.1737 62.562 76.0117C62.2785 75.8294 62.0456 75.4952 61.8633 75.0091L56.5772 60.8218C56.5367 60.7408 56.5165 60.6395 56.5165 60.518C56.5165 60.3762 56.5468 60.2446 56.6076 60.1231C56.6684 60.0015 56.7494 59.8901 56.8506 59.7889C57.0329 59.6269 57.2557 59.5458 57.519 59.5458C58.0253 59.5458 58.3595 59.7686 58.5215 60.2142L63.5949 74.4623ZM77.9353 69.1762L79.272 69.2066V68.2041C79.272 66.6243 78.3808 65.8344 76.5986 65.8344C75.7682 65.8344 75.1707 65.9053 74.8062 66.0471C74.3808 66.2091 73.9758 66.4015 73.591 66.6243C73.2062 66.8269 72.9226 66.9281 72.7403 66.9281C72.5783 66.9281 72.4264 66.8674 72.2846 66.7458C72.1631 66.6041 72.1024 66.442 72.1024 66.2598C72.1024 66.0775 72.1834 65.9155 72.3454 65.7737C73.3175 64.842 74.7555 64.3762 76.6593 64.3762C78.7859 64.3762 80.153 65.1053 80.7606 66.5636C80.9834 67.0699 81.0948 67.6674 81.0948 68.356L81.0644 75.4344C81.0644 75.718 80.9732 75.9306 80.791 76.0724C80.6087 76.1939 80.396 76.2547 80.153 76.2547C79.9302 76.2547 79.7277 76.1939 79.5454 76.0724C79.3631 75.9306 79.272 75.7281 79.272 75.4648V74.3712C78.7859 75.4041 77.9049 76.0724 76.6289 76.3762C76.2239 76.4572 75.7783 76.4977 75.2922 76.4977C74.8264 76.4977 74.3505 76.4167 73.8644 76.2547C73.3783 76.1129 72.953 75.8901 72.5884 75.5863C71.8188 74.9788 71.434 74.1281 71.434 73.0344C71.434 70.4623 73.6011 69.1762 77.9353 69.1762ZM79.272 70.5737C78.9277 70.5939 78.5327 70.6041 78.0872 70.6041C77.6619 70.6041 77.2264 70.6142 76.7808 70.6344C76.3555 70.6547 75.9302 70.7053 75.5049 70.7863C75.0998 70.8674 74.7353 70.9889 74.4112 71.1509C73.6821 71.556 73.3175 72.1636 73.3175 72.9737C73.3175 73.6218 73.5707 74.1484 74.077 74.5534C74.4821 74.8572 75.0694 75.0294 75.8391 75.0699C76.7707 75.0699 77.5606 74.7762 78.2087 74.1889C78.877 73.6015 79.2315 72.7408 79.272 71.6066V70.5737ZM88.3295 65.8344C86.5675 65.8344 85.6865 66.3914 85.6865 67.5053C85.6865 67.9914 85.9295 68.3762 86.4156 68.6598C86.7801 68.842 87.5295 69.075 88.6637 69.3585C89.7979 69.6218 90.6586 69.8446 91.246 70.0269C91.8333 70.2091 92.3194 70.5433 92.7042 71.0294C93.089 71.5155 93.2814 72.0927 93.2814 72.761C93.2814 73.4091 93.1396 73.9762 92.8561 74.4623C92.5725 74.9281 92.1877 75.3129 91.7017 75.6167C90.7903 76.2041 89.6054 76.4977 88.1472 76.4977C87.0333 76.4977 86.0105 76.3155 85.0789 75.9509C84.6535 75.7686 84.3092 75.5661 84.046 75.3433C83.7827 75.1205 83.651 74.918 83.651 74.7357C83.651 74.5332 83.7219 74.3712 83.8637 74.2496C84.0054 74.1079 84.1675 74.037 84.3498 74.037C84.532 74.037 84.7447 74.0977 84.9877 74.2193C85.2308 74.3205 85.5244 74.4319 85.8687 74.5534C86.8004 74.8977 87.5599 75.0699 88.1472 75.0699C88.7346 75.0699 89.2004 75.0294 89.5447 74.9484C89.889 74.8674 90.2029 74.7357 90.4865 74.5534C91.0941 74.1686 91.3979 73.642 91.3979 72.9737C91.3979 72.2041 90.8611 71.637 89.7877 71.2724C89.3827 71.1306 88.9472 71.0193 88.4814 70.9382C88.0156 70.837 87.5599 70.7357 87.1143 70.6344C86.6687 70.5332 86.2434 70.4117 85.8384 70.2699C85.4535 70.1281 85.0991 69.9357 84.7751 69.6927C84.1067 69.2066 83.7725 68.5079 83.7725 67.5965C83.7725 66.4825 84.2485 65.642 85.2004 65.075C85.9903 64.6091 87.0535 64.3762 88.3903 64.3762C89.6865 64.3762 90.7396 64.5889 91.5498 65.0142C92.2181 65.3585 92.5523 65.7231 92.5523 66.1079C92.5523 66.2699 92.4814 66.4117 92.3396 66.5332C92.1979 66.6547 92.0561 66.7155 91.9143 66.7155C91.651 66.7155 91.4282 66.6648 91.246 66.5636C91.0839 66.442 90.9017 66.3408 90.6991 66.2598C90.5168 66.1585 90.3042 66.0775 90.0611 66.0167C89.5953 65.8952 89.0181 65.8344 88.3295 65.8344ZM97.9052 60.6091C97.9052 60.8927 97.7938 61.1458 97.571 61.3686C97.3482 61.5712 97.0343 61.6724 96.6292 61.6724C96.2242 61.6724 95.9103 61.5712 95.6875 61.3686C95.4647 61.1458 95.3533 60.8927 95.3533 60.6091C95.3533 60.3256 95.4647 60.0724 95.6875 59.8496C95.9103 59.6269 96.2242 59.5155 96.6292 59.5155C97.0343 59.5155 97.3482 59.6269 97.571 59.8496C97.7938 60.0724 97.9052 60.3256 97.9052 60.6091ZM95.7179 65.5914C95.7179 65.2876 95.809 65.0547 95.9913 64.8927C96.1938 64.7306 96.3862 64.6496 96.5685 64.6496C96.7508 64.6496 96.8925 64.6699 96.9938 64.7104C97.0951 64.7509 97.1862 64.8117 97.2672 64.8927C97.4698 65.0344 97.571 65.2674 97.571 65.5914V75.3129C97.571 75.6167 97.4698 75.8496 97.2672 76.0117C97.0647 76.1737 96.8419 76.2547 96.5989 76.2547C96.3761 76.2547 96.1735 76.1838 95.9913 76.042C95.809 75.88 95.7179 75.637 95.7179 75.3129V65.5914ZM100.769 60.4876C100.769 60.1838 100.86 59.9509 101.043 59.7889C101.245 59.6269 101.437 59.5458 101.62 59.5458C101.802 59.5458 101.944 59.5661 102.045 59.6066C102.146 59.6471 102.237 59.7079 102.318 59.7889C102.521 59.9509 102.622 60.1838 102.622 60.4876V75.3129C102.622 75.6167 102.521 75.8496 102.318 76.0117C102.116 76.1737 101.893 76.2547 101.65 76.2547C101.427 76.2547 101.225 76.1838 101.043 76.042C100.86 75.88 100.769 75.637 100.769 75.3129V60.4876ZM104.97 70.4825C104.97 69.7534 105.081 69.0142 105.304 68.2648C105.547 67.5155 105.911 66.8572 106.398 66.2901C107.451 65.0142 108.909 64.3762 110.772 64.3762C112.595 64.3762 114.053 65.0142 115.147 66.2901C116.099 67.4041 116.575 68.7914 116.575 70.4522C116.575 72.0927 116.099 73.48 115.147 74.6142C114.074 75.8699 112.615 76.4977 110.772 76.4977C108.889 76.4977 107.43 75.8699 106.398 74.6142C105.446 73.4598 104.97 72.0825 104.97 70.4825ZM106.975 70.4825C106.975 70.9686 107.046 71.4851 107.187 72.0319C107.329 72.5788 107.552 73.075 107.856 73.5205C108.565 74.5534 109.537 75.0699 110.772 75.0699C112.028 75.0699 113 74.5534 113.689 73.5205C114.256 72.6496 114.539 71.6269 114.539 70.4522C114.539 69.2977 114.256 68.275 113.689 67.3838C113.02 66.3509 112.048 65.8344 110.772 65.8344C109.517 65.8344 108.544 66.3509 107.856 67.3838C107.268 68.2547 106.975 69.2876 106.975 70.4825ZM124.821 74.8269C124.618 75.3332 124.396 75.6977 124.152 75.9205C123.93 76.1433 123.606 76.2547 123.18 76.2547C122.775 76.2547 122.451 76.1433 122.208 75.9205C121.965 75.6977 121.742 75.3332 121.54 74.8269L117.773 65.8344C117.732 65.7129 117.712 65.6015 117.712 65.5003C117.712 65.3788 117.732 65.2674 117.773 65.1661C117.833 65.0446 117.915 64.9534 118.016 64.8927C118.198 64.7306 118.401 64.6496 118.623 64.6496C119.049 64.6496 119.342 64.842 119.504 65.2269L123.18 74.0977L126.704 65.2269C126.866 64.842 127.15 64.6496 127.555 64.6496C128.001 64.6496 128.304 64.8117 128.466 65.1357C128.507 65.237 128.527 65.3484 128.527 65.4699C128.527 65.5914 128.507 65.7129 128.466 65.8344L124.821 74.8269ZM129.65 70.4825C129.65 69.7534 129.762 69.0142 129.985 68.2648C130.228 67.5155 130.592 66.8572 131.078 66.2901C132.131 65.0142 133.59 64.3762 135.453 64.3762C137.276 64.3762 138.734 65.0142 139.828 66.2901C140.779 67.4041 141.255 68.7914 141.255 70.4522C141.255 72.0927 140.779 73.48 139.828 74.6142C138.754 75.8699 137.296 76.4977 135.453 76.4977C133.569 76.4977 132.111 75.8699 131.078 74.6142C130.126 73.4598 129.65 72.0825 129.65 70.4825ZM131.655 70.4825C131.655 70.9686 131.726 71.4851 131.868 72.0319C132.01 72.5788 132.233 73.075 132.536 73.5205C133.245 74.5534 134.217 75.0699 135.453 75.0699C136.709 75.0699 137.681 74.5534 138.369 73.5205C138.936 72.6496 139.22 71.6269 139.22 70.4522C139.22 69.2977 138.936 68.275 138.369 67.3838C137.701 66.3509 136.729 65.8344 135.453 65.8344C134.197 65.8344 133.225 66.3509 132.536 67.3838C131.949 68.2547 131.655 69.2876 131.655 70.4825Z" fill="black"/>
    <line x1="82" y1="368" x2="508" y2="368" stroke="black" stroke-width="2"/>
    <path d="M455.173 355.81C455.038 356.377 454.971 356.931 454.971 357.471C454.971 358.011 455.038 358.565 455.173 359.132C455.322 359.699 455.545 360.198 455.842 360.63C456.152 361.049 456.544 361.393 457.016 361.663C457.489 361.92 458.056 362.048 458.718 362.048C459.379 362.048 459.946 361.92 460.419 361.663C460.892 361.393 461.283 361.049 461.594 360.63C461.904 360.198 462.127 359.699 462.262 359.132C462.397 358.565 462.464 358.011 462.464 357.471C462.464 356.931 462.397 356.377 462.262 355.81C462.127 355.243 461.904 354.743 461.594 354.311C461.283 353.879 460.892 353.535 460.419 353.278C459.946 353.022 459.379 352.894 458.718 352.894C458.056 352.894 457.489 353.022 457.016 353.278C456.544 353.535 456.152 353.879 455.842 354.311C455.545 354.743 455.322 355.243 455.173 355.81ZM453.472 357.471C453.472 356.674 453.587 355.918 453.816 355.203C454.046 354.487 454.383 353.873 454.829 353.359C455.774 352.293 457.07 351.759 458.718 351.759C460.378 351.759 461.675 352.293 462.606 353.359C463.038 353.873 463.369 354.487 463.599 355.203C463.828 355.918 463.943 356.674 463.943 357.471C463.943 358.268 463.828 359.024 463.599 359.739C463.369 360.455 463.038 361.069 462.606 361.582C461.675 362.635 460.378 363.162 458.718 363.162C457.057 363.162 455.761 362.635 454.829 361.582C454.383 361.069 454.046 360.455 453.816 359.739C453.587 359.024 453.472 358.268 453.472 357.471ZM472.466 362.413C472.466 362.615 472.399 362.764 472.264 362.858C472.129 362.953 472.001 363 471.879 363C471.771 363 471.677 362.993 471.596 362.98C471.528 362.953 471.467 362.919 471.413 362.878C471.278 362.757 471.211 362.608 471.211 362.433V361.724C470.887 362.426 470.286 362.878 469.408 363.081C469.152 363.135 468.861 363.162 468.537 363.162C468.213 363.162 467.882 363.108 467.545 363C467.221 362.892 466.931 362.716 466.674 362.473C466.12 361.933 465.844 361.157 465.844 360.144V355.851C465.844 355.648 465.904 355.5 466.026 355.405C466.161 355.311 466.309 355.263 466.471 355.263C466.634 355.263 466.775 355.311 466.897 355.405C467.032 355.5 467.099 355.648 467.099 355.851V360.225C467.099 360.968 467.241 361.481 467.525 361.765C467.822 362.062 468.274 362.21 468.882 362.21C469.908 362.21 470.61 361.798 470.988 360.975C471.109 360.691 471.184 360.36 471.211 359.982V355.851C471.211 355.662 471.278 355.52 471.413 355.425C471.548 355.317 471.69 355.263 471.839 355.263C472.001 355.263 472.142 355.311 472.264 355.405C472.399 355.5 472.466 355.648 472.466 355.851V362.413ZM478.646 362.534C478.646 362.953 478.167 363.162 477.208 363.162C476.479 363.162 475.959 362.973 475.649 362.595C475.324 362.176 475.162 361.481 475.162 360.509V356.195H474.231C474.069 356.195 473.941 356.148 473.846 356.053C473.765 355.959 473.724 355.851 473.724 355.729C473.724 355.608 473.765 355.5 473.846 355.405C473.927 355.311 474.055 355.263 474.231 355.263H475.203L475.304 353.056C475.318 352.894 475.385 352.765 475.507 352.671C475.628 352.576 475.757 352.529 475.892 352.529C476.243 352.529 476.418 352.698 476.418 353.035V355.263H477.816C477.978 355.263 478.099 355.311 478.18 355.405C478.275 355.5 478.322 355.608 478.322 355.729C478.322 355.851 478.275 355.959 478.18 356.053C478.099 356.148 477.978 356.195 477.816 356.195H476.418V359.82C476.418 360.806 476.452 361.414 476.519 361.643C476.6 361.859 476.702 362.008 476.823 362.089C476.958 362.17 477.141 362.21 477.37 362.21L478.2 362.129C478.349 362.129 478.457 362.176 478.524 362.271C478.606 362.365 478.646 362.453 478.646 362.534ZM480.864 356.559C481.242 355.844 481.897 355.385 482.829 355.182C483.099 355.115 483.443 355.081 483.862 355.081C484.294 355.081 484.713 355.203 485.118 355.446C485.536 355.675 485.874 355.979 486.13 356.357C486.4 356.735 486.596 357.167 486.718 357.653C486.839 358.139 486.9 358.646 486.9 359.172C486.9 359.699 486.832 360.205 486.697 360.691C486.576 361.164 486.38 361.582 486.11 361.947C485.529 362.757 484.699 363.162 483.619 363.162C483.038 363.162 482.572 363.074 482.221 362.899C481.627 362.588 481.175 362.197 480.864 361.724V365.39C480.864 365.579 480.797 365.721 480.662 365.815C480.54 365.91 480.399 365.957 480.237 365.957C480.075 365.957 479.926 365.91 479.791 365.815C479.669 365.721 479.609 365.579 479.609 365.39V355.83C479.609 355.641 479.669 355.5 479.791 355.405C479.926 355.311 480.102 355.263 480.318 355.263C480.763 355.263 480.945 355.695 480.864 356.559ZM481.371 356.965C481.195 357.235 481.067 357.559 480.986 357.937C480.905 358.315 480.864 358.713 480.864 359.132C480.864 359.537 480.912 359.922 481.006 360.286C481.101 360.651 481.249 360.975 481.452 361.258C481.884 361.893 482.505 362.21 483.315 362.21C484.112 362.21 484.706 361.879 485.097 361.218C485.421 360.664 485.583 359.962 485.583 359.111C485.583 357.775 485.199 356.85 484.429 356.337C484.145 356.148 483.774 356.053 483.315 356.053C482.856 356.053 482.464 356.134 482.14 356.296C481.816 356.458 481.56 356.681 481.371 356.965ZM495.131 362.413C495.131 362.615 495.064 362.764 494.929 362.858C494.794 362.953 494.666 363 494.544 363C494.436 363 494.342 362.993 494.261 362.98C494.193 362.953 494.132 362.919 494.078 362.878C493.943 362.757 493.876 362.608 493.876 362.433V361.724C493.552 362.426 492.951 362.878 492.073 363.081C491.817 363.135 491.526 363.162 491.202 363.162C490.878 363.162 490.547 363.108 490.21 363C489.886 362.892 489.596 362.716 489.339 362.473C488.785 361.933 488.509 361.157 488.509 360.144V355.851C488.509 355.648 488.569 355.5 488.691 355.405C488.826 355.311 488.974 355.263 489.136 355.263C489.299 355.263 489.44 355.311 489.562 355.405C489.697 355.5 489.764 355.648 489.764 355.851V360.225C489.764 360.968 489.906 361.481 490.19 361.765C490.487 362.062 490.939 362.21 491.547 362.21C492.573 362.21 493.275 361.798 493.653 360.975C493.774 360.691 493.849 360.36 493.876 359.982V355.851C493.876 355.662 493.943 355.52 494.078 355.425C494.213 355.317 494.355 355.263 494.504 355.263C494.666 355.263 494.807 355.311 494.929 355.405C495.064 355.5 495.131 355.648 495.131 355.851V362.413ZM501.311 362.534C501.311 362.953 500.832 363.162 499.873 363.162C499.144 363.162 498.624 362.973 498.314 362.595C497.989 362.176 497.827 361.481 497.827 360.509V356.195H496.896C496.734 356.195 496.606 356.148 496.511 356.053C496.43 355.959 496.389 355.851 496.389 355.729C496.389 355.608 496.43 355.5 496.511 355.405C496.592 355.311 496.72 355.263 496.896 355.263H497.868L497.969 353.056C497.983 352.894 498.05 352.765 498.172 352.671C498.293 352.576 498.422 352.529 498.557 352.529C498.908 352.529 499.083 352.698 499.083 353.035V355.263H500.481C500.643 355.263 500.764 355.311 500.845 355.405C500.94 355.5 500.987 355.608 500.987 355.729C500.987 355.851 500.94 355.959 500.845 356.053C500.764 356.148 500.643 356.195 500.481 356.195H499.083V359.82C499.083 360.806 499.117 361.414 499.184 361.643C499.265 361.859 499.367 362.008 499.488 362.089C499.623 362.17 499.806 362.21 500.035 362.21L500.865 362.129C501.014 362.129 501.122 362.176 501.189 362.271C501.271 362.365 501.311 362.453 501.311 362.534Z" fill="black"/>
    <path d="M338.548 358.813C338.872 359.204 339.291 359.508 339.804 359.724C340.331 359.94 340.958 360.048 341.688 360.048C342.417 360.048 343.24 359.933 344.158 359.704V356.301H341.951C341.775 356.301 341.64 356.247 341.546 356.139C341.465 356.031 341.424 355.91 341.424 355.775C341.424 355.64 341.465 355.518 341.546 355.41C341.627 355.302 341.762 355.248 341.951 355.248H344.948C345.137 355.248 345.279 355.302 345.374 355.41C345.482 355.518 345.536 355.66 345.536 355.835V359.927C345.536 360.291 345.36 360.521 345.009 360.615C343.834 360.98 342.768 361.162 341.809 361.162C340.85 361.162 340.04 361.054 339.379 360.838C338.717 360.608 338.15 360.257 337.677 359.785C336.665 358.772 336.158 357.321 336.158 355.43C336.158 353.878 336.611 352.561 337.515 351.481C338.501 350.333 339.885 349.759 341.667 349.759C342.788 349.759 343.828 349.949 344.786 350.327C344.989 350.408 345.09 350.543 345.09 350.732C345.09 350.921 345.043 351.076 344.948 351.197C344.867 351.319 344.753 351.38 344.604 351.38H344.543C344.516 351.38 344.435 351.359 344.3 351.319C344.179 351.278 343.996 351.238 343.753 351.197C343.524 351.143 343.294 351.103 343.065 351.076C342.538 350.995 342.093 350.954 341.728 350.954C340.337 350.954 339.284 351.414 338.569 352.332C338.245 352.75 338.008 353.243 337.86 353.81C337.711 354.377 337.637 354.965 337.637 355.572C337.637 356.18 337.711 356.774 337.86 357.354C338.008 357.922 338.238 358.408 338.548 358.813ZM351.455 356.281L352.346 356.301V355.633C352.346 354.58 351.752 354.053 350.564 354.053C350.01 354.053 349.612 354.1 349.369 354.195C349.085 354.303 348.815 354.431 348.559 354.58C348.302 354.715 348.113 354.782 347.992 354.782C347.884 354.782 347.783 354.742 347.688 354.661C347.607 354.566 347.566 354.458 347.566 354.337C347.566 354.215 347.62 354.107 347.728 354.013C348.377 353.392 349.335 353.081 350.604 353.081C352.022 353.081 352.934 353.567 353.339 354.539C353.487 354.877 353.561 355.275 353.561 355.734L353.541 360.453C353.541 360.642 353.48 360.784 353.359 360.878C353.237 360.959 353.096 361 352.934 361C352.785 361 352.65 360.959 352.528 360.878C352.407 360.784 352.346 360.649 352.346 360.473V359.744C352.022 360.433 351.435 360.878 350.584 361.081C350.314 361.135 350.017 361.162 349.693 361.162C349.383 361.162 349.065 361.108 348.741 361C348.417 360.905 348.134 360.757 347.891 360.554C347.377 360.149 347.121 359.582 347.121 358.853C347.121 357.138 348.566 356.281 351.455 356.281ZM352.346 357.213C352.117 357.226 351.853 357.233 351.556 357.233C351.273 357.233 350.983 357.24 350.685 357.253C350.402 357.267 350.118 357.3 349.835 357.354C349.565 357.408 349.322 357.489 349.106 357.597C348.62 357.868 348.377 358.273 348.377 358.813C348.377 359.245 348.545 359.596 348.883 359.866C349.153 360.068 349.545 360.183 350.058 360.21C350.679 360.21 351.205 360.014 351.637 359.623C352.083 359.231 352.319 358.657 352.346 357.901V357.213ZM357.088 350.57C357.088 350.759 357.014 350.927 356.866 351.076C356.717 351.211 356.508 351.278 356.238 351.278C355.968 351.278 355.758 351.211 355.61 351.076C355.461 350.927 355.387 350.759 355.387 350.57C355.387 350.381 355.461 350.212 355.61 350.063C355.758 349.915 355.968 349.841 356.238 349.841C356.508 349.841 356.717 349.915 356.866 350.063C357.014 350.212 357.088 350.381 357.088 350.57ZM355.63 353.891C355.63 353.689 355.691 353.533 355.812 353.425C355.947 353.317 356.076 353.263 356.197 353.263C356.319 353.263 356.413 353.277 356.481 353.304C356.548 353.331 356.609 353.371 356.663 353.425C356.798 353.52 356.866 353.675 356.866 353.891V360.372C356.866 360.575 356.798 360.73 356.663 360.838C356.528 360.946 356.379 361 356.217 361C356.069 361 355.934 360.953 355.812 360.858C355.691 360.75 355.63 360.588 355.63 360.372V353.891ZM358.977 353.83C358.977 353.641 359.038 353.5 359.16 353.405C359.295 353.311 359.477 353.263 359.706 353.263C360.139 353.263 360.314 353.689 360.233 354.539C360.544 353.891 361.138 353.439 362.015 353.182C362.285 353.115 362.582 353.081 362.906 353.081C363.231 353.081 363.555 353.142 363.879 353.263C364.216 353.371 364.513 353.547 364.77 353.79C365.323 354.316 365.6 355.093 365.6 356.119V360.413C365.6 360.615 365.533 360.764 365.398 360.858C365.263 360.953 365.114 361 364.952 361C364.804 361 364.662 360.953 364.527 360.858C364.405 360.75 364.344 360.602 364.344 360.413V356.018C364.344 355.073 363.973 354.458 363.231 354.175C363.015 354.094 362.765 354.053 362.481 354.053C362.211 354.053 361.934 354.107 361.651 354.215C361.367 354.323 361.124 354.465 360.922 354.641C360.463 355.046 360.233 355.667 360.233 356.504V360.413C360.233 360.615 360.166 360.764 360.031 360.858C359.896 360.953 359.747 361 359.585 361C359.423 361 359.281 360.953 359.16 360.858C359.038 360.75 358.977 360.602 358.977 360.413V353.83Z" fill="black"/>
    <path d="M84.1196 350.529C84.1196 350.205 84.2682 349.996 84.5652 349.901C84.6462 349.874 84.7542 349.861 84.8892 349.861C85.0243 349.861 85.1593 349.915 85.2943 350.023C85.4428 350.131 85.5171 350.3 85.5171 350.529V360.352C85.5171 360.662 85.3686 360.865 85.0715 360.959C84.9905 360.986 84.8825 361 84.7475 361C84.6125 361 84.4707 360.946 84.3222 360.838C84.1871 360.73 84.1196 360.568 84.1196 360.352V350.529ZM88.0196 353.83C88.0196 353.641 88.0803 353.5 88.2018 353.405C88.3369 353.311 88.5191 353.263 88.7487 353.263C89.1807 353.263 89.3563 353.689 89.2753 354.539C89.5858 353.891 90.1799 353.439 91.0575 353.182C91.3276 353.115 91.6246 353.081 91.9487 353.081C92.2727 353.081 92.5968 353.142 92.9208 353.263C93.2584 353.371 93.5554 353.547 93.812 353.79C94.3656 354.316 94.6423 355.093 94.6423 356.119V360.413C94.6423 360.615 94.5748 360.764 94.4398 360.858C94.3048 360.953 94.1563 361 93.9942 361C93.8457 361 93.704 360.953 93.5689 360.858C93.4474 360.75 93.3867 360.602 93.3867 360.413V356.018C93.3867 355.073 93.0153 354.458 92.2727 354.175C92.0567 354.094 91.8069 354.053 91.5234 354.053C91.2533 354.053 90.9765 354.107 90.693 354.215C90.4094 354.323 90.1664 354.465 89.9639 354.641C89.5048 355.046 89.2753 355.667 89.2753 356.504V360.413C89.2753 360.615 89.2077 360.764 89.0727 360.858C88.9377 360.953 88.7892 361 88.6272 361C88.4651 361 88.3234 360.953 88.2018 360.858C88.0803 360.75 88.0196 360.602 88.0196 360.413V353.83ZM97.8447 354.559C98.2228 353.844 98.8776 353.385 99.8093 353.182C100.079 353.115 100.424 353.081 100.842 353.081C101.274 353.081 101.693 353.203 102.098 353.446C102.516 353.675 102.854 353.979 103.111 354.357C103.381 354.735 103.576 355.167 103.698 355.653C103.819 356.139 103.88 356.646 103.88 357.172C103.88 357.699 103.813 358.205 103.678 358.691C103.556 359.164 103.36 359.582 103.09 359.947C102.51 360.757 101.679 361.162 100.599 361.162C100.019 361.162 99.5528 361.074 99.2017 360.899C98.6076 360.588 98.1553 360.197 97.8447 359.724V363.39C97.8447 363.579 97.7772 363.721 97.6422 363.815C97.5207 363.91 97.3789 363.957 97.2169 363.957C97.0549 363.957 96.9063 363.91 96.7713 363.815C96.6498 363.721 96.589 363.579 96.589 363.39V353.83C96.589 353.641 96.6498 353.5 96.7713 353.405C96.9063 353.311 97.0819 353.263 97.2979 353.263C97.7435 353.263 97.9258 353.695 97.8447 354.559ZM98.3511 354.965C98.1755 355.235 98.0473 355.559 97.9663 355.937C97.8852 356.315 97.8447 356.713 97.8447 357.132C97.8447 357.537 97.892 357.922 97.9865 358.286C98.081 358.651 98.2295 358.975 98.4321 359.258C98.8641 359.893 99.4852 360.21 100.295 360.21C101.092 360.21 101.686 359.879 102.078 359.218C102.402 358.664 102.564 357.962 102.564 357.111C102.564 355.775 102.179 354.85 101.409 354.337C101.126 354.148 100.754 354.053 100.295 354.053C99.8363 354.053 99.4447 354.134 99.1207 354.296C98.7966 354.458 98.5401 354.681 98.3511 354.965ZM112.112 360.413C112.112 360.615 112.044 360.764 111.909 360.858C111.774 360.953 111.646 361 111.524 361C111.416 361 111.322 360.993 111.241 360.98C111.173 360.953 111.113 360.919 111.059 360.878C110.924 360.757 110.856 360.608 110.856 360.433V359.724C110.532 360.426 109.931 360.878 109.053 361.081C108.797 361.135 108.507 361.162 108.183 361.162C107.859 361.162 107.528 361.108 107.19 361C106.866 360.892 106.576 360.716 106.319 360.473C105.766 359.933 105.489 359.157 105.489 358.144V353.851C105.489 353.648 105.55 353.5 105.671 353.405C105.806 353.311 105.955 353.263 106.117 353.263C106.279 353.263 106.421 353.311 106.542 353.405C106.677 353.5 106.745 353.648 106.745 353.851V358.225C106.745 358.968 106.886 359.481 107.17 359.765C107.467 360.062 107.919 360.21 108.527 360.21C109.553 360.21 110.255 359.798 110.633 358.975C110.755 358.691 110.829 358.36 110.856 357.982V353.851C110.856 353.662 110.924 353.52 111.059 353.425C111.194 353.317 111.335 353.263 111.484 353.263C111.646 353.263 111.788 353.311 111.909 353.405C112.044 353.5 112.112 353.648 112.112 353.851V360.413ZM118.291 360.534C118.291 360.953 117.812 361.162 116.853 361.162C116.124 361.162 115.604 360.973 115.294 360.595C114.97 360.176 114.808 359.481 114.808 358.509V354.195H113.876C113.714 354.195 113.586 354.148 113.491 354.053C113.41 353.959 113.37 353.851 113.37 353.729C113.37 353.608 113.41 353.5 113.491 353.405C113.572 353.311 113.701 353.263 113.876 353.263H114.848L114.95 351.056C114.963 350.894 115.031 350.765 115.152 350.671C115.274 350.576 115.402 350.529 115.537 350.529C115.888 350.529 116.063 350.698 116.063 351.035V353.263H117.461C117.623 353.263 117.744 353.311 117.826 353.405C117.92 353.5 117.967 353.608 117.967 353.729C117.967 353.851 117.92 353.959 117.826 354.053C117.744 354.148 117.623 354.195 117.461 354.195H116.063V357.82C116.063 358.806 116.097 359.414 116.165 359.643C116.246 359.859 116.347 360.008 116.469 360.089C116.604 360.17 116.786 360.21 117.015 360.21L117.846 360.129C117.994 360.129 118.102 360.176 118.17 360.271C118.251 360.365 118.291 360.453 118.291 360.534Z" fill="black"/>
    <path d="M194.852 352.676C194.852 352.973 194.94 353.243 195.115 353.486C195.304 353.729 195.548 353.938 195.845 354.114C196.142 354.276 196.479 354.418 196.857 354.539C197.235 354.661 197.634 354.789 198.052 354.924C198.484 355.059 198.896 355.208 199.288 355.37C199.693 355.532 200.05 355.734 200.361 355.977C201.036 356.504 201.374 357.226 201.374 358.144C201.374 358.576 201.266 358.988 201.05 359.38C200.847 359.758 200.557 360.082 200.179 360.352C199.423 360.892 198.43 361.162 197.202 361.162C195.946 361.162 194.899 360.865 194.062 360.271C193.549 359.933 193.279 359.697 193.252 359.562C193.239 359.508 193.232 359.454 193.232 359.4C193.232 359.332 193.245 359.258 193.272 359.177C193.299 359.096 193.333 359.029 193.374 358.975C193.495 358.826 193.603 358.752 193.698 358.752C193.806 358.752 193.907 358.786 194.002 358.853C194.096 358.921 194.204 359.002 194.326 359.096C194.461 359.191 194.623 359.299 194.812 359.42C195.014 359.542 195.237 359.65 195.48 359.744C196.02 359.933 196.54 360.028 197.039 360.028C197.553 360.028 197.971 359.994 198.295 359.927C198.633 359.846 198.923 359.724 199.166 359.562C199.679 359.211 199.936 358.765 199.936 358.225C199.936 357.294 199.261 356.619 197.91 356.2C197.532 356.078 197.134 355.957 196.715 355.835C196.31 355.7 195.905 355.545 195.5 355.37C195.095 355.194 194.737 354.985 194.427 354.742C194.116 354.499 193.866 354.208 193.677 353.871C193.502 353.52 193.414 353.128 193.414 352.696C193.414 352.264 193.522 351.859 193.738 351.481C193.954 351.103 194.238 350.792 194.589 350.549C195.318 350.023 196.216 349.759 197.283 349.759C198.808 349.759 200.044 350.259 200.989 351.258C201.056 351.326 201.09 351.414 201.09 351.522C201.09 351.63 201.077 351.717 201.05 351.785C201.036 351.852 201.009 351.913 200.969 351.967C200.874 352.102 200.746 352.17 200.584 352.17C200.422 352.17 200.246 352.075 200.057 351.886C199.639 351.576 199.288 351.359 199.004 351.238C198.504 351.035 197.971 350.934 197.404 350.934C196.729 350.934 196.155 351.076 195.683 351.359C195.129 351.67 194.852 352.109 194.852 352.676ZM204.591 350.57C204.591 350.759 204.517 350.927 204.368 351.076C204.22 351.211 204.011 351.278 203.741 351.278C203.47 351.278 203.261 351.211 203.113 351.076C202.964 350.927 202.89 350.759 202.89 350.57C202.89 350.381 202.964 350.212 203.113 350.063C203.261 349.915 203.47 349.841 203.741 349.841C204.011 349.841 204.22 349.915 204.368 350.063C204.517 350.212 204.591 350.381 204.591 350.57ZM203.133 353.891C203.133 353.689 203.194 353.533 203.315 353.425C203.45 353.317 203.579 353.263 203.7 353.263C203.822 353.263 203.916 353.277 203.984 353.304C204.051 353.331 204.112 353.371 204.166 353.425C204.301 353.52 204.368 353.675 204.368 353.891V360.372C204.368 360.575 204.301 360.73 204.166 360.838C204.031 360.946 203.882 361 203.72 361C203.572 361 203.437 360.953 203.315 360.858C203.194 360.75 203.133 360.588 203.133 360.372V353.891ZM212.657 361C212.279 361 212.063 360.811 212.009 360.433V359.704C211.645 360.23 211.233 360.608 210.774 360.838C210.315 361.054 209.795 361.162 209.214 361.162C208.647 361.162 208.154 361.047 207.736 360.818C207.331 360.588 207 360.284 206.743 359.906C206.23 359.123 205.974 358.185 205.974 357.091C205.974 355.97 206.237 355.046 206.764 354.316C207.331 353.493 208.161 353.081 209.255 353.081C210.119 353.081 210.868 353.344 211.503 353.871C211.706 354.046 211.874 354.256 212.009 354.499V350.428C212.009 350.239 212.07 350.097 212.192 350.003C212.327 349.908 212.475 349.861 212.637 349.861C212.799 349.861 212.941 349.915 213.062 350.023C213.197 350.117 213.265 350.252 213.265 350.428V360.413C213.265 360.615 213.197 360.764 213.062 360.858C212.941 360.953 212.806 361 212.657 361ZM210.733 354.296C210.423 354.134 210.045 354.053 209.599 354.053C209.167 354.053 208.803 354.141 208.506 354.316C208.208 354.492 207.972 354.722 207.797 355.005C207.459 355.545 207.29 356.22 207.29 357.03C207.29 358.637 207.763 359.65 208.708 360.068C208.924 360.163 209.228 360.21 209.619 360.21C210.011 360.21 210.369 360.122 210.693 359.947C211.017 359.771 211.273 359.542 211.462 359.258C211.814 358.718 211.989 357.962 211.989 356.99C211.989 355.64 211.57 354.742 210.733 354.296ZM222.165 356.889C222.165 357.01 222.124 357.118 222.043 357.213C221.962 357.294 221.834 357.334 221.659 357.334H216.069C216.096 358.333 216.359 359.056 216.859 359.501C217.385 359.974 217.993 360.21 218.681 360.21C219.41 360.21 220.187 359.94 221.01 359.4C221.118 359.319 221.227 359.278 221.335 359.278C221.456 359.278 221.551 359.319 221.618 359.4C221.686 359.481 221.719 359.562 221.719 359.643C221.719 359.805 221.665 359.94 221.557 360.048C220.761 360.791 219.768 361.162 218.58 361.162C217.473 361.162 216.575 360.804 215.886 360.089C215.13 359.319 214.752 358.333 214.752 357.132C214.752 356.011 215.07 355.073 215.704 354.316C216.393 353.493 217.311 353.081 218.459 353.081C219.66 353.081 220.585 353.446 221.233 354.175C221.827 354.85 222.138 355.754 222.165 356.889ZM220.929 356.524C220.875 355.768 220.646 355.167 220.241 354.722C219.836 354.276 219.248 354.053 218.479 354.053C217.804 354.053 217.25 354.296 216.818 354.782C216.399 355.255 216.163 355.835 216.109 356.524H220.929ZM223.24 357.132C223.24 355.984 223.557 355.032 224.192 354.276C224.881 353.479 225.792 353.081 226.926 353.081C227.493 353.081 227.952 353.149 228.303 353.284C228.965 353.54 229.296 353.81 229.296 354.094C229.296 354.215 229.255 354.323 229.174 354.418C229.093 354.512 228.999 354.559 228.891 354.559C228.796 354.559 228.715 354.546 228.648 354.519C228.121 354.222 227.628 354.073 227.169 354.073C226.724 354.06 226.346 354.127 226.035 354.276C225.724 354.424 225.461 354.627 225.245 354.884C224.786 355.451 224.557 356.193 224.557 357.111C224.557 357.949 224.732 358.651 225.083 359.218C225.502 359.879 226.15 360.21 227.027 360.21C227.554 360.21 228.141 360.041 228.789 359.704C229.019 359.623 229.181 359.636 229.276 359.744C229.384 359.852 229.438 359.981 229.438 360.129C229.438 360.264 229.35 360.399 229.174 360.534C228.999 360.669 228.783 360.784 228.526 360.878C227.311 361.284 226.231 361.27 225.286 360.838C224.408 360.433 223.8 359.717 223.463 358.691C223.314 358.205 223.24 357.685 223.24 357.132ZM236.372 355.957C236.372 355.012 236 354.411 235.258 354.154C235.042 354.087 234.792 354.053 234.508 354.053C234.238 354.053 233.962 354.107 233.678 354.215C233.394 354.31 233.151 354.458 232.949 354.661C232.49 355.093 232.26 355.707 232.26 356.504V360.413C232.26 360.615 232.193 360.764 232.058 360.858C231.923 360.953 231.774 361 231.612 361C231.45 361 231.308 360.953 231.187 360.858C231.065 360.75 231.005 360.602 231.005 360.413V350.428C231.005 350.239 231.065 350.097 231.187 350.003C231.322 349.908 231.47 349.861 231.632 349.861C231.794 349.861 231.936 349.908 232.058 350.003C232.193 350.097 232.26 350.239 232.26 350.428V354.559C232.571 353.871 233.165 353.412 234.043 353.182C234.313 353.115 234.61 353.081 234.934 353.081C235.258 353.081 235.582 353.135 235.906 353.243C236.243 353.351 236.54 353.527 236.797 353.77C237.351 354.296 237.627 355.059 237.627 356.058V360.413C237.627 360.615 237.56 360.764 237.425 360.858C237.29 360.953 237.141 361 236.979 361C236.831 361 236.689 360.953 236.554 360.858C236.432 360.75 236.372 360.602 236.372 360.413V355.957ZM243.382 356.281L244.273 356.301V355.633C244.273 354.58 243.679 354.053 242.49 354.053C241.937 354.053 241.539 354.1 241.296 354.195C241.012 354.303 240.742 354.431 240.485 354.58C240.229 354.715 240.04 354.782 239.918 354.782C239.81 354.782 239.709 354.742 239.615 354.661C239.534 354.566 239.493 354.458 239.493 354.337C239.493 354.215 239.547 354.107 239.655 354.013C240.303 353.392 241.262 353.081 242.531 353.081C243.949 353.081 244.86 353.567 245.265 354.539C245.414 354.877 245.488 355.275 245.488 355.734L245.468 360.453C245.468 360.642 245.407 360.784 245.285 360.878C245.164 360.959 245.022 361 244.86 361C244.712 361 244.577 360.959 244.455 360.878C244.334 360.784 244.273 360.649 244.273 360.473V359.744C243.949 360.433 243.361 360.878 242.511 361.081C242.241 361.135 241.944 361.162 241.62 361.162C241.309 361.162 240.992 361.108 240.668 361C240.344 360.905 240.06 360.757 239.817 360.554C239.304 360.149 239.047 359.582 239.047 358.853C239.047 357.138 240.492 356.281 243.382 356.281ZM244.273 357.213C244.043 357.226 243.78 357.233 243.483 357.233C243.199 357.233 242.909 357.24 242.612 357.253C242.328 357.267 242.045 357.3 241.761 357.354C241.491 357.408 241.248 357.489 241.032 357.597C240.546 357.868 240.303 358.273 240.303 358.813C240.303 359.245 240.472 359.596 240.809 359.866C241.08 360.068 241.471 360.183 241.984 360.21C242.605 360.21 243.132 360.014 243.564 359.623C244.009 359.231 244.246 358.657 244.273 357.901V357.213ZM249.015 350.57C249.015 350.759 248.941 350.927 248.792 351.076C248.644 351.211 248.434 351.278 248.164 351.278C247.894 351.278 247.685 351.211 247.536 351.076C247.388 350.927 247.314 350.759 247.314 350.57C247.314 350.381 247.388 350.212 247.536 350.063C247.685 349.915 247.894 349.841 248.164 349.841C248.434 349.841 248.644 349.915 248.792 350.063C248.941 350.212 249.015 350.381 249.015 350.57ZM247.557 353.891C247.557 353.689 247.617 353.533 247.739 353.425C247.874 353.317 248.002 353.263 248.124 353.263C248.245 353.263 248.34 353.277 248.407 353.304C248.475 353.331 248.536 353.371 248.59 353.425C248.725 353.52 248.792 353.675 248.792 353.891V360.372C248.792 360.575 248.725 360.73 248.59 360.838C248.455 360.946 248.306 361 248.144 361C247.996 361 247.86 360.953 247.739 360.858C247.617 360.75 247.557 360.588 247.557 360.372V353.891ZM250.904 353.83C250.904 353.641 250.965 353.5 251.086 353.405C251.221 353.311 251.404 353.263 251.633 353.263C252.065 353.263 252.241 353.689 252.16 354.539C252.47 353.891 253.064 353.439 253.942 353.182C254.212 353.115 254.509 353.081 254.833 353.081C255.157 353.081 255.481 353.142 255.805 353.263C256.143 353.371 256.44 353.547 256.696 353.79C257.25 354.316 257.527 355.093 257.527 356.119V360.413C257.527 360.615 257.459 360.764 257.324 360.858C257.189 360.953 257.041 361 256.879 361C256.73 361 256.588 360.953 256.453 360.858C256.332 360.75 256.271 360.602 256.271 360.413V356.018C256.271 355.073 255.9 354.458 255.157 354.175C254.941 354.094 254.691 354.053 254.408 354.053C254.138 354.053 253.861 354.107 253.577 354.215C253.294 354.323 253.051 354.465 252.848 354.641C252.389 355.046 252.16 355.667 252.16 356.504V360.413C252.16 360.615 252.092 360.764 251.957 360.858C251.822 360.953 251.674 361 251.512 361C251.35 361 251.208 360.953 251.086 360.858C250.965 360.75 250.904 360.602 250.904 360.413V353.83Z" fill="black"/>
    <line x1="78" y1="171" x2="407" y2="171" stroke="black" stroke-width="2"/>
    <path d="M317.817 163.149C317.844 163.244 317.857 163.332 317.857 163.413C317.857 163.48 317.83 163.554 317.776 163.635C317.736 163.716 317.682 163.784 317.614 163.838C317.479 163.946 317.33 164 317.168 164C316.844 164 316.628 163.865 316.52 163.595L315.528 161.084H309.999L309.006 163.595C308.912 163.865 308.723 164 308.439 164C308.142 164 307.933 163.878 307.812 163.635C307.771 163.554 307.751 163.48 307.751 163.413C307.751 163.332 307.764 163.244 307.791 163.149L311.498 154.076C311.754 153.374 312.065 152.982 312.429 152.901C312.537 152.874 312.659 152.861 312.794 152.861C313.077 152.861 313.287 152.915 313.422 153.023C313.678 153.252 313.894 153.603 314.07 154.076L317.817 163.149ZM310.404 160.03H315.143L312.774 154.015L310.404 160.03ZM319.141 153.489C319.141 153.286 319.202 153.131 319.323 153.023C319.458 152.915 319.586 152.861 319.708 152.861C319.829 152.861 319.924 152.874 319.991 152.901C320.059 152.928 320.12 152.969 320.174 153.023C320.309 153.131 320.376 153.286 320.376 153.489V163.372C320.376 163.575 320.309 163.73 320.174 163.838C320.039 163.946 319.89 164 319.728 164C319.58 164 319.445 163.953 319.323 163.858C319.202 163.75 319.141 163.588 319.141 163.372V153.489ZM325.607 157.053C324.081 157.053 323.318 158.073 323.318 160.111C323.318 161.084 323.555 161.84 324.027 162.38C324.432 162.866 324.959 163.109 325.607 163.109C326.269 163.109 326.829 162.852 327.288 162.339C327.788 161.799 328.037 161.07 328.037 160.152C328.037 158.761 327.612 157.816 326.761 157.316C326.451 157.141 326.066 157.053 325.607 157.053ZM325.283 156.081C326.593 156.081 327.531 156.601 328.098 157.641V156.79C328.112 156.614 328.172 156.486 328.28 156.405C328.402 156.311 328.537 156.263 328.685 156.263C328.834 156.263 328.969 156.311 329.091 156.405C329.212 156.5 329.273 156.641 329.273 156.83V164.162C329.273 165.728 328.55 166.707 327.106 167.099C326.66 167.22 326.208 167.281 325.749 167.281C325.29 167.281 324.918 167.254 324.635 167.2C324.351 167.159 324.095 167.099 323.865 167.018C323.406 166.842 323.055 166.613 322.812 166.329C322.704 166.221 322.65 166.106 322.65 165.985C322.65 165.863 322.691 165.755 322.772 165.661C322.866 165.58 322.967 165.539 323.075 165.539C323.183 165.539 323.291 165.559 323.399 165.6C323.548 165.681 323.69 165.762 323.825 165.843C323.973 165.924 324.135 165.998 324.311 166.066C324.662 166.187 325.047 166.248 325.465 166.248C325.897 166.248 326.262 166.214 326.559 166.147C326.869 166.079 327.133 165.971 327.349 165.823C327.808 165.499 328.037 164.979 328.037 164.263V162.481C327.646 163.224 327.025 163.703 326.174 163.919C325.918 163.973 325.661 164 325.404 164C324.257 164 323.379 163.615 322.772 162.846C322.231 162.157 321.961 161.266 321.961 160.172C321.961 158.322 322.576 157.073 323.804 156.425C324.223 156.196 324.716 156.081 325.283 156.081ZM330.699 160.152C330.699 159.666 330.774 159.173 330.922 158.673C331.084 158.174 331.327 157.735 331.651 157.357C332.353 156.506 333.325 156.081 334.568 156.081C335.783 156.081 336.755 156.506 337.484 157.357C338.119 158.1 338.436 159.024 338.436 160.132C338.436 161.225 338.119 162.15 337.484 162.906C336.768 163.743 335.796 164.162 334.568 164.162C333.312 164.162 332.34 163.743 331.651 162.906C331.017 162.137 330.699 161.219 330.699 160.152ZM332.036 160.152C332.036 160.476 332.083 160.82 332.178 161.185C332.272 161.549 332.421 161.88 332.623 162.177C333.096 162.866 333.744 163.21 334.568 163.21C335.405 163.21 336.053 162.866 336.512 162.177C336.89 161.597 337.079 160.915 337.079 160.132C337.079 159.362 336.89 158.68 336.512 158.086C336.066 157.397 335.418 157.053 334.568 157.053C333.731 157.053 333.082 157.397 332.623 158.086C332.232 158.667 332.036 159.355 332.036 160.152ZM340.673 156.263C341.064 156.263 341.26 156.459 341.26 156.851V157.539C341.597 156.567 342.306 156.081 343.387 156.081C343.589 156.081 343.744 156.142 343.852 156.263C343.96 156.371 344.014 156.493 344.014 156.628C344.014 156.763 343.96 156.884 343.852 156.992C343.758 157.1 343.569 157.154 343.285 157.154C343.002 157.154 342.725 157.215 342.455 157.337C342.198 157.445 341.982 157.6 341.807 157.803C341.442 158.248 341.26 158.842 341.26 159.585V163.413C341.26 163.602 341.192 163.75 341.057 163.858C340.922 163.953 340.794 164 340.673 164C340.551 164 340.45 163.993 340.369 163.98C340.301 163.953 340.241 163.919 340.187 163.878C340.065 163.77 340.004 163.615 340.004 163.413V156.851C340.004 156.662 340.065 156.52 340.187 156.425C340.322 156.317 340.484 156.263 340.673 156.263ZM346.694 153.57C346.694 153.759 346.62 153.927 346.471 154.076C346.323 154.211 346.113 154.278 345.843 154.278C345.573 154.278 345.364 154.211 345.216 154.076C345.067 153.927 344.993 153.759 344.993 153.57C344.993 153.381 345.067 153.212 345.216 153.063C345.364 152.915 345.573 152.841 345.843 152.841C346.113 152.841 346.323 152.915 346.471 153.063C346.62 153.212 346.694 153.381 346.694 153.57ZM345.236 156.891C345.236 156.689 345.297 156.533 345.418 156.425C345.553 156.317 345.681 156.263 345.803 156.263C345.924 156.263 346.019 156.277 346.086 156.304C346.154 156.331 346.215 156.371 346.269 156.425C346.404 156.52 346.471 156.675 346.471 156.891V163.372C346.471 163.575 346.404 163.73 346.269 163.838C346.134 163.946 345.985 164 345.823 164C345.675 164 345.54 163.953 345.418 163.858C345.297 163.75 345.236 163.588 345.236 163.372V156.891ZM352.674 163.534C352.674 163.953 352.195 164.162 351.236 164.162C350.507 164.162 349.987 163.973 349.677 163.595C349.353 163.176 349.191 162.481 349.191 161.509V157.195H348.259C348.097 157.195 347.969 157.148 347.874 157.053C347.793 156.959 347.753 156.851 347.753 156.729C347.753 156.608 347.793 156.5 347.874 156.405C347.955 156.311 348.083 156.263 348.259 156.263H349.231L349.332 154.056C349.346 153.894 349.413 153.765 349.535 153.671C349.656 153.576 349.785 153.529 349.92 153.529C350.271 153.529 350.446 153.698 350.446 154.035V156.263H351.844C352.006 156.263 352.127 156.311 352.208 156.405C352.303 156.5 352.35 156.608 352.35 156.729C352.35 156.851 352.303 156.959 352.208 157.053C352.127 157.148 352.006 157.195 351.844 157.195H350.446V160.82C350.446 161.806 350.48 162.414 350.548 162.643C350.629 162.859 350.73 163.008 350.851 163.089C350.986 163.17 351.169 163.21 351.398 163.21L352.229 163.129C352.377 163.129 352.485 163.176 352.553 163.271C352.634 163.365 352.674 163.453 352.674 163.534ZM359.146 158.957C359.146 158.012 358.774 157.411 358.032 157.154C357.816 157.087 357.566 157.053 357.282 157.053C357.012 157.053 356.736 157.107 356.452 157.215C356.168 157.31 355.925 157.458 355.723 157.661C355.264 158.093 355.034 158.707 355.034 159.504V163.413C355.034 163.615 354.967 163.764 354.832 163.858C354.697 163.953 354.548 164 354.386 164C354.224 164 354.082 163.953 353.961 163.858C353.839 163.75 353.779 163.602 353.779 163.413V153.428C353.779 153.239 353.839 153.097 353.961 153.003C354.096 152.908 354.244 152.861 354.406 152.861C354.568 152.861 354.71 152.908 354.832 153.003C354.967 153.097 355.034 153.239 355.034 153.428V157.559C355.345 156.871 355.939 156.412 356.817 156.182C357.087 156.115 357.384 156.081 357.708 156.081C358.032 156.081 358.356 156.135 358.68 156.243C359.017 156.351 359.314 156.527 359.571 156.77C360.125 157.296 360.401 158.059 360.401 159.058V163.413C360.401 163.615 360.334 163.764 360.199 163.858C360.064 163.953 359.915 164 359.753 164C359.605 164 359.463 163.953 359.328 163.858C359.206 163.75 359.146 163.602 359.146 163.413V158.957ZM368.89 157.742C369.538 156.635 370.476 156.081 371.705 156.081C372.961 156.081 373.805 156.614 374.237 157.681C374.385 158.059 374.459 158.518 374.459 159.058V163.413C374.459 163.615 374.392 163.764 374.257 163.858C374.122 163.953 373.973 164 373.811 164C373.663 164 373.521 163.953 373.386 163.858C373.265 163.764 373.204 163.615 373.204 163.413V158.977C373.204 158.019 372.832 157.411 372.09 157.154C371.874 157.087 371.631 157.053 371.361 157.053C371.104 157.053 370.841 157.1 370.571 157.195C370.301 157.276 370.051 157.411 369.822 157.6C369.335 158.019 369.092 158.646 369.092 159.484V163.413C369.092 163.615 369.025 163.764 368.89 163.858C368.755 163.953 368.606 164 368.444 164C368.296 164 368.154 163.953 368.019 163.858C367.897 163.75 367.837 163.602 367.837 163.413V158.977C367.837 158.019 367.465 157.411 366.723 157.154C366.507 157.087 366.257 157.053 365.973 157.053C365.703 157.053 365.427 157.107 365.143 157.215C364.873 157.31 364.637 157.458 364.434 157.661C363.975 158.093 363.746 158.707 363.746 159.504V163.413C363.746 163.615 363.678 163.764 363.543 163.858C363.408 163.953 363.259 164 363.097 164C362.935 164 362.787 163.953 362.652 163.858C362.53 163.764 362.47 163.615 362.47 163.413V156.83C362.47 156.641 362.537 156.5 362.672 156.405C362.807 156.311 362.935 156.263 363.057 156.263C363.178 156.263 363.273 156.277 363.341 156.304C363.408 156.317 363.476 156.344 363.543 156.385C363.678 156.506 363.746 156.648 363.746 156.81V157.539C364.043 156.851 364.637 156.398 365.528 156.182C365.798 156.115 366.068 156.081 366.338 156.081C367.634 156.081 368.485 156.635 368.89 157.742Z" fill="black"/>
    <path d="M88.5788 165.149C88.6058 165.244 88.6193 165.332 88.6193 165.413C88.6193 165.48 88.5923 165.554 88.5383 165.635C88.4977 165.716 88.4437 165.784 88.3762 165.838C88.2412 165.946 88.0927 166 87.9307 166C87.6066 166 87.3906 165.865 87.2826 165.595L86.2901 163.084H80.761L79.7686 165.595C79.6741 165.865 79.4851 166 79.2015 166C78.9045 166 78.6952 165.878 78.5737 165.635C78.5332 165.554 78.5129 165.48 78.5129 165.413C78.5129 165.332 78.5264 165.244 78.5534 165.149L82.2598 156.076C82.5163 155.374 82.8269 154.982 83.1914 154.901C83.2994 154.874 83.421 154.861 83.556 154.861C83.8395 154.861 84.0488 154.915 84.1838 155.023C84.4404 155.252 84.6564 155.603 84.8319 156.076L88.5788 165.149ZM81.1661 162.03H85.9053L83.5357 156.015L81.1661 162.03ZM93.9738 165.534C93.9738 165.953 93.4945 166.162 92.5359 166.162C91.8067 166.162 91.2869 165.973 90.9764 165.595C90.6523 165.176 90.4903 164.481 90.4903 163.509V159.195H89.5586C89.3966 159.195 89.2683 159.148 89.1738 159.053C89.0928 158.959 89.0523 158.851 89.0523 158.729C89.0523 158.608 89.0928 158.5 89.1738 158.405C89.2548 158.311 89.3831 158.263 89.5586 158.263H90.5308L90.6321 156.056C90.6456 155.894 90.7131 155.765 90.8346 155.671C90.9561 155.576 91.0844 155.529 91.2194 155.529C91.5705 155.529 91.746 155.698 91.746 156.035V158.263H93.1434C93.3055 158.263 93.427 158.311 93.508 158.405C93.6025 158.5 93.6498 158.608 93.6498 158.729C93.6498 158.851 93.6025 158.959 93.508 159.053C93.427 159.148 93.3055 159.195 93.1434 159.195H91.746V162.82C91.746 163.806 91.7797 164.414 91.8472 164.643C91.9283 164.859 92.0295 165.008 92.151 165.089C92.2861 165.17 92.4683 165.21 92.6979 165.21L93.5283 165.129C93.6768 165.129 93.7848 165.176 93.8523 165.271C93.9333 165.365 93.9738 165.453 93.9738 165.534ZM99.1695 165.534C99.1695 165.953 98.6901 166.162 97.7315 166.162C97.0024 166.162 96.4825 165.973 96.172 165.595C95.8479 165.176 95.6859 164.481 95.6859 163.509V159.195H94.7543C94.5922 159.195 94.464 159.148 94.3695 159.053C94.2884 158.959 94.2479 158.851 94.2479 158.729C94.2479 158.608 94.2884 158.5 94.3695 158.405C94.4505 158.311 94.5787 158.263 94.7543 158.263H95.7264L95.8277 156.056C95.8412 155.894 95.9087 155.765 96.0302 155.671C96.1517 155.576 96.28 155.529 96.415 155.529C96.7661 155.529 96.9416 155.698 96.9416 156.035V158.263H98.3391C98.5011 158.263 98.6226 158.311 98.7036 158.405C98.7981 158.5 98.8454 158.608 98.8454 158.729C98.8454 158.851 98.7981 158.959 98.7036 159.053C98.6226 159.148 98.5011 159.195 98.3391 159.195H96.9416V162.82C96.9416 163.806 96.9754 164.414 97.0429 164.643C97.1239 164.859 97.2251 165.008 97.3467 165.089C97.4817 165.17 97.664 165.21 97.8935 165.21L98.7239 165.129C98.8724 165.129 98.9804 165.176 99.0479 165.271C99.1289 165.365 99.1695 165.453 99.1695 165.534ZM103.94 161.281L104.831 161.301V160.633C104.831 159.58 104.237 159.053 103.049 159.053C102.495 159.053 102.097 159.1 101.854 159.195C101.57 159.303 101.3 159.431 101.044 159.58C100.787 159.715 100.598 159.782 100.476 159.782C100.368 159.782 100.267 159.742 100.173 159.661C100.092 159.566 100.051 159.458 100.051 159.337C100.051 159.215 100.105 159.107 100.213 159.013C100.861 158.392 101.82 158.081 103.089 158.081C104.507 158.081 105.418 158.567 105.823 159.539C105.972 159.877 106.046 160.275 106.046 160.734L106.026 165.453C106.026 165.642 105.965 165.784 105.844 165.878C105.722 165.959 105.58 166 105.418 166C105.27 166 105.135 165.959 105.013 165.878C104.892 165.784 104.831 165.649 104.831 165.473V164.744C104.507 165.433 103.92 165.878 103.069 166.081C102.799 166.135 102.502 166.162 102.178 166.162C101.867 166.162 101.55 166.108 101.226 166C100.902 165.905 100.618 165.757 100.375 165.554C99.8621 165.149 99.6056 164.582 99.6056 163.853C99.6056 162.138 101.05 161.281 103.94 161.281ZM104.831 162.213C104.601 162.226 104.338 162.233 104.041 162.233C103.757 162.233 103.467 162.24 103.17 162.253C102.887 162.267 102.603 162.3 102.32 162.354C102.049 162.408 101.806 162.489 101.59 162.597C101.104 162.868 100.861 163.273 100.861 163.813C100.861 164.245 101.03 164.596 101.368 164.866C101.638 165.068 102.029 165.183 102.542 165.21C103.163 165.21 103.69 165.014 104.122 164.623C104.568 164.231 104.804 163.657 104.831 162.901V162.213ZM107.588 162.132C107.588 160.984 107.906 160.032 108.54 159.276C109.229 158.479 110.14 158.081 111.274 158.081C111.841 158.081 112.3 158.149 112.652 158.284C113.313 158.54 113.644 158.81 113.644 159.094C113.644 159.215 113.603 159.323 113.522 159.418C113.441 159.512 113.347 159.559 113.239 159.559C113.144 159.559 113.063 159.546 112.996 159.519C112.469 159.222 111.976 159.073 111.517 159.073C111.072 159.06 110.694 159.127 110.383 159.276C110.073 159.424 109.809 159.627 109.593 159.884C109.134 160.451 108.905 161.193 108.905 162.111C108.905 162.949 109.08 163.651 109.431 164.218C109.85 164.879 110.498 165.21 111.376 165.21C111.902 165.21 112.49 165.041 113.138 164.704C113.367 164.623 113.529 164.636 113.624 164.744C113.732 164.852 113.786 164.981 113.786 165.129C113.786 165.264 113.698 165.399 113.522 165.534C113.347 165.669 113.131 165.784 112.874 165.878C111.659 166.284 110.579 166.27 109.634 165.838C108.756 165.433 108.149 164.717 107.811 163.691C107.662 163.205 107.588 162.685 107.588 162.132ZM116.689 161.828V165.372C116.689 165.575 116.622 165.73 116.487 165.838C116.352 165.946 116.203 166 116.041 166C115.893 166 115.751 165.953 115.616 165.858C115.494 165.75 115.434 165.588 115.434 165.372V155.489C115.434 155.286 115.501 155.131 115.636 155.023C115.771 154.915 115.893 154.861 116.001 154.861C116.122 154.861 116.217 154.874 116.284 154.901C116.365 154.928 116.433 154.969 116.487 155.023C116.622 155.158 116.689 155.313 116.689 155.489V161.403L120.213 158.446C120.335 158.324 120.47 158.263 120.619 158.263C120.767 158.263 120.895 158.311 121.003 158.405C121.111 158.5 121.165 158.594 121.165 158.689C121.165 158.878 121.111 159.013 121.003 159.094L117.986 161.605L121.388 165.129C121.483 165.251 121.53 165.352 121.53 165.433C121.53 165.514 121.51 165.588 121.469 165.656C121.442 165.723 121.402 165.784 121.348 165.838C121.213 165.946 121.071 166 120.922 166C120.787 166 120.652 165.932 120.517 165.797L116.689 161.828Z" fill="black"/>
    <path d="M206.109 164C205.798 164 205.589 163.865 205.481 163.595C205.441 163.514 205.42 163.426 205.42 163.332V153.529C205.42 153.219 205.562 153.009 205.846 152.901C205.927 152.874 206.014 152.861 206.109 152.861H208.762C211.719 152.861 213.582 153.921 214.352 156.041C214.608 156.743 214.737 157.553 214.737 158.471C214.737 159.376 214.602 160.172 214.332 160.861C214.075 161.549 213.69 162.123 213.177 162.582C212.138 163.527 210.679 164 208.803 164H206.109ZM206.797 162.906H208.944C210.416 162.906 211.516 162.501 212.246 161.691C212.921 160.962 213.258 159.875 213.258 158.43C213.258 156.945 212.84 155.818 212.003 155.048C211.233 154.319 210.092 153.954 208.58 153.954H206.797V162.906ZM223.516 159.889C223.516 160.01 223.476 160.118 223.395 160.213C223.314 160.294 223.186 160.334 223.01 160.334H217.42C217.447 161.333 217.711 162.056 218.21 162.501C218.737 162.974 219.344 163.21 220.033 163.21C220.762 163.21 221.538 162.94 222.362 162.4C222.47 162.319 222.578 162.278 222.686 162.278C222.808 162.278 222.902 162.319 222.97 162.4C223.037 162.481 223.071 162.562 223.071 162.643C223.071 162.805 223.017 162.94 222.909 163.048C222.112 163.791 221.12 164.162 219.932 164.162C218.824 164.162 217.927 163.804 217.238 163.089C216.482 162.319 216.104 161.333 216.104 160.132C216.104 159.011 216.421 158.073 217.056 157.316C217.744 156.493 218.662 156.081 219.81 156.081C221.012 156.081 221.937 156.446 222.585 157.175C223.179 157.85 223.489 158.754 223.516 159.889ZM222.281 159.524C222.227 158.768 221.997 158.167 221.592 157.722C221.187 157.276 220.6 157.053 219.83 157.053C219.155 157.053 218.602 157.296 218.17 157.782C217.751 158.255 217.515 158.835 217.461 159.524H222.281ZM224.592 160.132C224.592 158.984 224.909 158.032 225.544 157.276C226.232 156.479 227.144 156.081 228.278 156.081C228.845 156.081 229.304 156.149 229.655 156.284C230.317 156.54 230.647 156.81 230.647 157.094C230.647 157.215 230.607 157.323 230.526 157.418C230.445 157.512 230.35 157.559 230.242 157.559C230.148 157.559 230.067 157.546 229.999 157.519C229.473 157.222 228.98 157.073 228.521 157.073C228.075 157.06 227.697 157.127 227.387 157.276C227.076 157.424 226.813 157.627 226.597 157.884C226.138 158.451 225.908 159.193 225.908 160.111C225.908 160.949 226.084 161.651 226.435 162.218C226.853 162.879 227.501 163.21 228.379 163.21C228.906 163.21 229.493 163.041 230.141 162.704C230.371 162.623 230.533 162.636 230.627 162.744C230.735 162.852 230.789 162.981 230.789 163.129C230.789 163.264 230.701 163.399 230.526 163.534C230.35 163.669 230.134 163.784 229.878 163.878C228.663 164.284 227.582 164.27 226.637 163.838C225.76 163.433 225.152 162.717 224.814 161.691C224.666 161.205 224.592 160.685 224.592 160.132ZM236.022 159.281L236.913 159.301V158.633C236.913 157.58 236.319 157.053 235.131 157.053C234.577 157.053 234.179 157.1 233.936 157.195C233.652 157.303 233.382 157.431 233.126 157.58C232.869 157.715 232.68 157.782 232.559 157.782C232.451 157.782 232.349 157.742 232.255 157.661C232.174 157.566 232.133 157.458 232.133 157.337C232.133 157.215 232.187 157.107 232.295 157.013C232.943 156.392 233.902 156.081 235.171 156.081C236.589 156.081 237.5 156.567 237.905 157.539C238.054 157.877 238.128 158.275 238.128 158.734L238.108 163.453C238.108 163.642 238.047 163.784 237.926 163.878C237.804 163.959 237.662 164 237.5 164C237.352 164 237.217 163.959 237.095 163.878C236.974 163.784 236.913 163.649 236.913 163.473V162.744C236.589 163.433 236.002 163.878 235.151 164.081C234.881 164.135 234.584 164.162 234.26 164.162C233.949 164.162 233.632 164.108 233.308 164C232.984 163.905 232.7 163.757 232.457 163.554C231.944 163.149 231.688 162.582 231.688 161.853C231.688 160.138 233.132 159.281 236.022 159.281ZM236.913 160.213C236.684 160.226 236.42 160.233 236.123 160.233C235.84 160.233 235.549 160.24 235.252 160.253C234.969 160.267 234.685 160.3 234.402 160.354C234.132 160.408 233.889 160.489 233.673 160.597C233.187 160.868 232.943 161.273 232.943 161.813C232.943 162.245 233.112 162.596 233.45 162.866C233.72 163.068 234.111 163.183 234.624 163.21C235.246 163.21 235.772 163.014 236.204 162.623C236.65 162.231 236.886 161.657 236.913 160.901V160.213ZM242.405 163.919L239.387 157.073C239.346 157.006 239.333 156.932 239.346 156.851C239.346 156.581 239.488 156.398 239.772 156.304C239.853 156.277 239.947 156.263 240.055 156.263C240.312 156.263 240.494 156.392 240.602 156.648L243.032 162.522L245.443 156.648C245.564 156.365 245.746 156.236 245.989 156.263C246.151 156.263 246.293 156.317 246.415 156.425C246.55 156.52 246.617 156.635 246.617 156.77C246.617 156.891 246.597 156.986 246.556 157.053L242.627 166.613C242.492 166.896 242.303 167.038 242.06 167.038C241.804 167.038 241.608 166.923 241.473 166.694C241.432 166.626 241.412 166.552 241.412 166.471C241.412 166.39 241.426 166.309 241.453 166.228L242.405 163.919Z" fill="black"/>
    <path d="M57 413.448L57 409C57 402.373 62.3726 397 69 397L130 397C136.627 397 142 402.373 142 409L142 413.448M142 554.552L142 559C142 565.627 136.627 571 130 571L69 571C62.3726 571 57 565.627 57 559L57 554.552" stroke="black" stroke-width="2"/>
    <path d="M183 413.448L183 409C183 402.373 188.373 397 195 397L256 397C262.627 397 268 402.373 268 409L268 413.448M268 554.552L268 559C268 565.627 262.627 571 256 571L195 571C188.373 571 183 565.627 183 559L183 554.552" stroke="black" stroke-width="2"/>
    <path d="M309 413.448L309 409C309 402.373 314.373 397 321 397L382 397C388.627 397 394 402.373 394 409L394 413.448M394 554.552L394 559C394 565.627 388.627 571 382 571L321 571C314.373 571 309 565.627 309 559L309 554.552" stroke="black" stroke-width="2"/>
    <path d="M435 413.448L435 409C435 402.373 440.373 397 447 397L508 397C514.627 397 520 402.373 520 409L520 413.448M520 554.552L520 559C520 565.627 514.627 571 508 571L447 571C440.373 571 435 565.627 435 559L435 554.552" stroke="black" stroke-width="2"/>
    <path d="M326 268H319C312.373 268 307 262.627 307 256V224C307 217.373 312.373 212 319 212H326M489 212H496C502.627 212 508 217.373 508 224V256C508 262.627 502.627 268 496 268H489" stroke="black" stroke-width="2"/>
</svg>
