<?xml version="1.0" encoding="UTF-8"?>
<svg width="800" height="600"
    xmlns="http://www.w3.org/2000/svg">
    <!-- Background -->
    <rect width="800" height="600" fill="#D9D9D9" />

    <svg transform="translate(56, 0)" width="370" height="186" viewBox="0 0 370 186" fill="none"
        xmlns="http://www.w3.org/2000/svg">
        <path d="M103.289 84.7038C103.289 85.892 103.64 86.9722 104.342 87.9443C105.098 88.9165 106.07 89.7536 107.258 90.4557C108.446 91.1038 109.797 91.6709 111.309 92.157C112.821 92.643 114.414 93.1561 116.089 93.6962C117.817 94.2363 119.464 94.8304 121.03 95.4785C122.651 96.1266 124.082 96.9367 125.324 97.9089C128.024 100.015 129.375 102.905 129.375 106.577C129.375 108.305 128.943 109.953 128.078 111.519C127.268 113.031 126.107 114.327 124.595 115.408C121.57 117.568 117.601 118.648 112.686 118.648C107.663 118.648 103.478 117.46 100.129 115.084C98.0768 113.733 96.9966 112.788 96.8886 112.248C96.8346 112.032 96.8076 111.816 96.8076 111.6C96.8076 111.33 96.8616 111.033 96.9696 110.709C97.0776 110.385 97.2127 110.115 97.3747 109.899C97.8608 109.305 98.2928 109.008 98.6709 109.008C99.103 109.008 99.508 109.143 99.8861 109.413C100.264 109.683 100.696 110.007 101.182 110.385C101.722 110.763 102.37 111.195 103.127 111.681C103.937 112.167 104.828 112.599 105.8 112.977C107.96 113.733 110.04 114.111 112.038 114.111C114.09 114.111 115.765 113.976 117.061 113.706C118.411 113.382 119.572 112.896 120.544 112.248C122.597 110.844 123.623 109.062 123.623 106.901C123.623 103.175 120.922 100.474 115.522 98.8C114.009 98.3139 112.416 97.8278 110.742 97.3418C109.122 96.8017 107.501 96.1806 105.881 95.4785C104.261 94.7764 102.83 93.9392 101.587 92.9671C100.345 91.9949 99.346 90.8338 98.5899 89.4835C97.8878 88.0793 97.5367 86.5131 97.5367 84.7848C97.5367 83.0565 97.9688 81.4363 98.8329 79.924C99.697 78.4118 100.831 77.1696 102.235 76.1975C105.152 74.0911 108.743 73.038 113.01 73.038C119.113 73.038 124.055 75.0363 127.835 79.0329C128.105 79.303 128.241 79.654 128.241 80.0861C128.241 80.5181 128.186 80.8692 128.078 81.1392C128.024 81.4093 127.916 81.6523 127.754 81.8684C127.376 82.4084 126.863 82.6785 126.215 82.6785C125.567 82.6785 124.865 82.3004 124.109 81.5443C122.435 80.3021 121.03 79.438 119.896 78.9519C117.898 78.1418 115.765 77.7367 113.496 77.7367C110.796 77.7367 108.5 78.3038 106.61 79.438C104.396 80.6802 103.289 82.4354 103.289 84.7038ZM142.245 76.2785C142.245 77.0346 141.948 77.7097 141.354 78.3038C140.759 78.8439 139.922 79.1139 138.842 79.1139C137.762 79.1139 136.925 78.8439 136.331 78.3038C135.737 77.7097 135.44 77.0346 135.44 76.2785C135.44 75.5224 135.737 74.8473 136.331 74.2532C136.925 73.6591 137.762 73.362 138.842 73.362C139.922 73.362 140.759 73.6591 141.354 74.2532C141.948 74.8473 142.245 75.5224 142.245 76.2785ZM136.412 89.5646C136.412 88.7544 136.655 88.1333 137.141 87.7013C137.681 87.2692 138.194 87.0532 138.68 87.0532C139.166 87.0532 139.544 87.1072 139.814 87.2152C140.084 87.3232 140.327 87.4852 140.543 87.7013C141.084 88.0793 141.354 88.7004 141.354 89.5646V115.489C141.354 116.299 141.084 116.92 140.543 117.352C140.003 117.784 139.409 118 138.761 118C138.167 118 137.627 117.811 137.141 117.433C136.655 117.001 136.412 116.353 136.412 115.489V89.5646ZM157.902 102.122L148.91 90.8608C148.586 90.4287 148.424 90.0236 148.424 89.6456C148.424 89.2135 148.505 88.8624 148.667 88.5924C148.829 88.2684 149.045 87.9983 149.315 87.7823C149.855 87.2962 150.368 87.0532 150.854 87.0532C151.772 87.0532 152.528 87.4042 153.122 88.1063L161.386 98.962L169.811 87.9443C170.297 87.3502 170.864 87.0532 171.512 87.0532C172.16 87.0532 172.7 87.2692 173.132 87.7013C173.618 88.0793 173.862 88.5384 173.862 89.0785C173.862 89.5646 173.699 89.9966 173.375 90.3747L164.383 102.041L174.024 114.273C174.348 114.705 174.51 115.111 174.51 115.489C174.51 115.867 174.429 116.218 174.267 116.542C174.159 116.812 173.97 117.055 173.699 117.271C173.105 117.757 172.538 118 171.998 118C171.134 118 170.405 117.649 169.811 116.947L160.818 105.119L151.745 117.109C151.313 117.703 150.827 118 150.287 118C149.801 118 149.396 117.946 149.072 117.838C148.802 117.676 148.559 117.514 148.343 117.352C147.856 116.92 147.613 116.461 147.613 115.975C147.613 115.435 147.748 114.976 148.018 114.597L157.902 102.122ZM185.226 92.238C186.739 89.3755 189.358 87.5392 193.085 86.7291C194.165 86.4591 195.542 86.3241 197.216 86.3241C198.945 86.3241 200.619 86.8101 202.239 87.7823C203.913 88.7004 205.264 89.9156 206.29 91.4278C207.37 92.9401 208.153 94.6684 208.639 96.6127C209.125 98.557 209.368 100.582 209.368 102.689C209.368 104.795 209.098 106.82 208.558 108.765C208.072 110.655 207.289 112.329 206.209 113.787C203.886 117.028 200.565 118.648 196.244 118.648C193.922 118.648 192.059 118.297 190.654 117.595C188.278 116.353 186.469 114.786 185.226 112.896V127.559C185.226 128.316 184.956 128.883 184.416 129.261C183.93 129.639 183.363 129.828 182.715 129.828C182.067 129.828 181.473 129.639 180.933 129.261C180.447 128.883 180.204 128.316 180.204 127.559V89.3215C180.204 88.5654 180.447 87.9983 180.933 87.6203C181.473 87.2422 182.175 87.0532 183.039 87.0532C184.821 87.0532 185.551 88.7814 185.226 92.238ZM187.252 93.8582C186.55 94.9384 186.037 96.2346 185.713 97.7468C185.388 99.2591 185.226 100.852 185.226 102.527C185.226 104.147 185.415 105.686 185.794 107.144C186.172 108.603 186.766 109.899 187.576 111.033C189.304 113.571 191.788 114.841 195.029 114.841C198.215 114.841 200.592 113.517 202.158 110.871C203.454 108.657 204.102 105.848 204.102 102.446C204.102 97.0987 202.563 93.3992 199.485 91.3468C198.351 90.5907 196.865 90.2127 195.029 90.2127C193.193 90.2127 191.626 90.5367 190.33 91.1848C189.034 91.8329 188.008 92.724 187.252 93.8582ZM230.467 99.1241L234.031 99.2051V96.5316C234.031 92.319 231.655 90.2127 226.902 90.2127C224.688 90.2127 223.094 90.4017 222.122 90.7797C220.988 91.2118 219.908 91.7249 218.882 92.319C217.856 92.8591 217.099 93.1291 216.613 93.1291C216.181 93.1291 215.776 92.9671 215.398 92.643C215.074 92.265 214.912 91.8329 214.912 91.3468C214.912 90.8608 215.128 90.4287 215.56 90.0506C218.153 87.5662 221.987 86.3241 227.064 86.3241C232.735 86.3241 236.38 88.2684 238.001 92.157C238.595 93.5072 238.892 95.1004 238.892 96.9367L238.811 115.813C238.811 116.569 238.568 117.136 238.082 117.514C237.596 117.838 237.029 118 236.38 118C235.786 118 235.246 117.838 234.76 117.514C234.274 117.136 234.031 116.596 234.031 115.894V112.977C232.735 115.732 230.386 117.514 226.983 118.324C225.903 118.54 224.715 118.648 223.418 118.648C222.176 118.648 220.907 118.432 219.611 118C218.315 117.622 217.18 117.028 216.208 116.218C214.156 114.597 213.13 112.329 213.13 109.413C213.13 102.554 218.909 99.1241 230.467 99.1241ZM234.031 102.851C233.113 102.905 232.06 102.932 230.872 102.932C229.737 102.932 228.576 102.959 227.388 103.013C226.254 103.067 225.12 103.202 223.986 103.418C222.905 103.634 221.933 103.958 221.069 104.39C219.125 105.47 218.153 107.09 218.153 109.251C218.153 110.979 218.828 112.383 220.178 113.463C221.258 114.273 222.824 114.732 224.877 114.841C227.361 114.841 229.467 114.057 231.196 112.491C232.978 110.925 233.923 108.63 234.031 105.605V102.851ZM247.086 89.3215C247.086 88.5654 247.329 87.9983 247.815 87.6203C248.355 87.2422 249.084 87.0532 250.002 87.0532C251.73 87.0532 252.433 88.7544 252.109 92.157C253.351 89.5646 255.727 87.7553 259.238 86.7291C260.318 86.4591 261.506 86.3241 262.802 86.3241C264.098 86.3241 265.395 86.5671 266.691 87.0532C268.041 87.4852 269.229 88.1873 270.255 89.1595C272.47 91.2658 273.577 94.3713 273.577 98.4759V115.651C273.577 116.461 273.307 117.055 272.767 117.433C272.227 117.811 271.633 118 270.985 118C270.39 118 269.823 117.811 269.283 117.433C268.797 117.001 268.554 116.407 268.554 115.651V98.0709C268.554 94.2903 267.069 91.8329 264.098 90.6987C263.234 90.3747 262.235 90.2127 261.101 90.2127C260.021 90.2127 258.914 90.4287 257.779 90.8608C256.645 91.2928 255.673 91.8599 254.863 92.562C253.027 94.1823 252.109 96.6667 252.109 100.015V115.651C252.109 116.461 251.839 117.055 251.298 117.433C250.758 117.811 250.164 118 249.516 118C248.868 118 248.301 117.811 247.815 117.433C247.329 117.001 247.086 116.407 247.086 115.651V89.3215ZM306.64 118C305.127 118 304.263 117.244 304.047 115.732V112.815C302.589 114.922 300.942 116.434 299.105 117.352C297.269 118.216 295.19 118.648 292.867 118.648C290.599 118.648 288.628 118.189 286.954 117.271C285.333 116.353 284.01 115.138 282.984 113.625C280.932 110.493 279.905 106.739 279.905 102.365C279.905 97.8819 280.959 94.1823 283.065 91.2658C285.333 87.9713 288.655 86.3241 293.03 86.3241C296.486 86.3241 299.484 87.3772 302.022 89.4835C302.832 90.1857 303.507 91.0228 304.047 91.9949V75.7114C304.047 74.9553 304.29 74.3882 304.776 74.0101C305.316 73.6321 305.911 73.443 306.559 73.443C307.207 73.443 307.774 73.6591 308.26 74.0911C308.8 74.4692 309.07 75.0093 309.07 75.7114V115.651C309.07 116.461 308.8 117.055 308.26 117.433C307.774 117.811 307.234 118 306.64 118ZM298.943 91.1848C297.701 90.5367 296.189 90.2127 294.407 90.2127C292.678 90.2127 291.22 90.5637 290.032 91.2658C288.844 91.9679 287.899 92.8861 287.197 94.0203C285.846 96.1806 285.171 98.881 285.171 102.122C285.171 108.549 287.062 112.599 290.842 114.273C291.706 114.651 292.921 114.841 294.488 114.841C296.054 114.841 297.485 114.489 298.781 113.787C300.078 113.085 301.104 112.167 301.86 111.033C303.264 108.873 303.966 105.848 303.966 101.959C303.966 96.5586 302.292 92.9671 298.943 91.1848ZM344.67 101.554C344.67 102.041 344.508 102.473 344.184 102.851C343.859 103.175 343.346 103.337 342.644 103.337H320.285C320.393 107.333 321.446 110.223 323.444 112.005C325.551 113.895 327.981 114.841 330.735 114.841C333.652 114.841 336.757 113.76 340.052 111.6C340.484 111.276 340.916 111.114 341.348 111.114C341.834 111.114 342.212 111.276 342.482 111.6C342.752 111.924 342.887 112.248 342.887 112.572C342.887 113.22 342.671 113.76 342.239 114.192C339.053 117.163 335.083 118.648 330.33 118.648C325.902 118.648 322.31 117.217 319.556 114.354C316.531 111.276 315.019 107.333 315.019 102.527C315.019 98.0439 316.288 94.2903 318.827 91.2658C321.581 87.9713 325.254 86.3241 329.844 86.3241C334.651 86.3241 338.351 87.7823 340.943 90.6987C343.319 93.3992 344.562 97.0177 344.67 101.554ZM339.728 100.096C339.512 97.0717 338.594 94.6684 336.973 92.8861C335.353 91.1038 333.004 90.2127 329.925 90.2127C327.225 90.2127 325.011 91.1848 323.282 93.1291C321.608 95.0194 320.663 97.3418 320.447 100.096H339.728ZM353.669 87.0532C355.235 87.0532 356.019 87.8363 356.019 89.4025V92.157C357.369 88.2684 360.204 86.3241 364.525 86.3241C365.335 86.3241 365.956 86.5671 366.388 87.0532C366.82 87.4852 367.036 87.9713 367.036 88.5114C367.036 89.0515 366.82 89.5376 366.388 89.9696C366.01 90.4017 365.254 90.6177 364.12 90.6177C362.986 90.6177 361.878 90.8608 360.798 91.3468C359.772 91.7789 358.908 92.4 358.206 93.2101C356.748 94.9924 356.019 97.3688 356.019 100.339V115.651C356.019 116.407 355.748 117.001 355.208 117.433C354.668 117.811 354.155 118 353.669 118C353.183 118 352.778 117.973 352.454 117.919C352.184 117.811 351.941 117.676 351.725 117.514C351.239 117.082 350.996 116.461 350.996 115.651V89.4025C350.996 88.6464 351.239 88.0793 351.725 87.7013C352.265 87.2692 352.913 87.0532 353.669 87.0532Z" fill="black"/>
        <path d="M7.59494 92.217H7.6557L12.6684 77.9993C12.8304 77.5335 13.1443 77.3006 13.6101 77.3006C13.9949 77.3006 14.2886 77.4828 14.4911 77.8474C14.5519 77.9487 14.5823 78.0499 14.5823 78.1512C14.5823 78.2525 14.562 78.3639 14.5215 78.4854L9.26582 92.7639C8.98228 93.5942 8.40506 94.0094 7.53418 94.0094C7.16962 94.0094 6.84557 93.9284 6.56203 93.7664C6.27848 93.5841 6.04557 93.2499 5.86329 92.7639L0.577215 78.5765C0.536709 78.4955 0.516456 78.3942 0.516456 78.2727C0.516456 78.1309 0.546835 77.9993 0.607595 77.8778C0.668354 77.7563 0.749367 77.6449 0.850633 77.5436C1.03291 77.3816 1.2557 77.3006 1.51899 77.3006C2.02532 77.3006 2.35949 77.5234 2.52152 77.9689L7.59494 92.217ZM21.9353 86.9309L23.272 86.9613V85.9588C23.272 84.3791 22.3808 83.5892 20.5986 83.5892C19.7682 83.5892 19.1707 83.6601 18.8062 83.8018C18.3808 83.9639 17.9758 84.1563 17.591 84.3791C17.2062 84.5816 16.9226 84.6828 16.7403 84.6828C16.5783 84.6828 16.4264 84.6221 16.2846 84.5006C16.1631 84.3588 16.1024 84.1968 16.1024 84.0145C16.1024 83.8322 16.1834 83.6702 16.3454 83.5284C17.3175 82.5968 18.7555 82.1309 20.6593 82.1309C22.7859 82.1309 24.153 82.8601 24.7606 84.3183C24.9834 84.8246 25.0948 85.4221 25.0948 86.1107L25.0644 93.1892C25.0644 93.4727 24.9732 93.6854 24.791 93.8272C24.6087 93.9487 24.396 94.0094 24.153 94.0094C23.9302 94.0094 23.7277 93.9487 23.5454 93.8272C23.3631 93.6854 23.272 93.4828 23.272 93.2196V92.1259C22.7859 93.1588 21.9049 93.8272 20.6289 94.1309C20.2239 94.212 19.7783 94.2525 19.2922 94.2525C18.8264 94.2525 18.3505 94.1715 17.8644 94.0094C17.3783 93.8677 16.953 93.6449 16.5884 93.3411C15.8188 92.7335 15.434 91.8828 15.434 90.7892C15.434 88.217 17.6011 86.9309 21.9353 86.9309ZM23.272 88.3284C22.9277 88.3487 22.5327 88.3588 22.0872 88.3588C21.6619 88.3588 21.2264 88.3689 20.7808 88.3892C20.3555 88.4094 19.9302 88.4601 19.5049 88.5411C19.0998 88.6221 18.7353 88.7436 18.4112 88.9056C17.6821 89.3107 17.3175 89.9183 17.3175 90.7284C17.3175 91.3765 17.5707 91.9031 18.077 92.3082C18.4821 92.612 19.0694 92.7841 19.8391 92.8246C20.7707 92.8246 21.5606 92.5309 22.2087 91.9436C22.877 91.3563 23.2315 90.4955 23.272 89.3613V88.3284ZM32.3295 83.5892C30.5675 83.5892 29.6865 84.1461 29.6865 85.2601C29.6865 85.7461 29.9295 86.1309 30.4156 86.4145C30.7801 86.5968 31.5295 86.8297 32.6637 87.1132C33.7979 87.3765 34.6586 87.5993 35.246 87.7816C35.8333 87.9639 36.3194 88.298 36.7042 88.7841C37.089 89.2702 37.2814 89.8474 37.2814 90.5158C37.2814 91.1639 37.1396 91.7309 36.8561 92.217C36.5725 92.6828 36.1877 93.0677 35.7017 93.3715C34.7903 93.9588 33.6054 94.2525 32.1472 94.2525C31.0333 94.2525 30.0105 94.0702 29.0789 93.7056C28.6535 93.5234 28.3092 93.3208 28.046 93.098C27.7827 92.8753 27.651 92.6727 27.651 92.4904C27.651 92.2879 27.7219 92.1259 27.8637 92.0044C28.0054 91.8626 28.1675 91.7917 28.3498 91.7917C28.532 91.7917 28.7447 91.8525 28.9877 91.974C29.2308 92.0753 29.5244 92.1866 29.8687 92.3082C30.8004 92.6525 31.5599 92.8246 32.1472 92.8246C32.7346 92.8246 33.2004 92.7841 33.5447 92.7031C33.889 92.6221 34.2029 92.4904 34.4865 92.3082C35.0941 91.9234 35.3979 91.3968 35.3979 90.7284C35.3979 89.9588 34.8611 89.3917 33.7877 89.0272C33.3827 88.8854 32.9472 88.774 32.4814 88.693C32.0156 88.5917 31.5599 88.4904 31.1143 88.3892C30.6687 88.2879 30.2434 88.1664 29.8384 88.0246C29.4535 87.8828 29.0991 87.6904 28.7751 87.4474C28.1067 86.9613 27.7725 86.2626 27.7725 85.3512C27.7725 84.2373 28.2485 83.3968 29.2004 82.8297C29.9903 82.3639 31.0535 82.1309 32.3903 82.1309C33.6865 82.1309 34.7396 82.3436 35.5498 82.7689C36.2181 83.1132 36.5523 83.4778 36.5523 83.8626C36.5523 84.0246 36.4814 84.1664 36.3396 84.2879C36.1979 84.4094 36.0561 84.4702 35.9143 84.4702C35.651 84.4702 35.4282 84.4196 35.246 84.3183C35.0839 84.1968 34.9017 84.0955 34.6991 84.0145C34.5168 83.9132 34.3042 83.8322 34.0611 83.7715C33.5953 83.6499 33.0181 83.5892 32.3295 83.5892ZM41.9052 78.3639C41.9052 78.6474 41.7938 78.9006 41.571 79.1234C41.3482 79.3259 41.0343 79.4272 40.6292 79.4272C40.2242 79.4272 39.9103 79.3259 39.6875 79.1234C39.4647 78.9006 39.3533 78.6474 39.3533 78.3639C39.3533 78.0803 39.4647 77.8272 39.6875 77.6044C39.9103 77.3816 40.2242 77.2702 40.6292 77.2702C41.0343 77.2702 41.3482 77.3816 41.571 77.6044C41.7938 77.8272 41.9052 78.0803 41.9052 78.3639ZM39.7179 83.3461C39.7179 83.0423 39.809 82.8094 39.9913 82.6474C40.1938 82.4854 40.3862 82.4044 40.5685 82.4044C40.7508 82.4044 40.8925 82.4246 40.9938 82.4651C41.0951 82.5056 41.1862 82.5664 41.2672 82.6474C41.4698 82.7892 41.571 83.0221 41.571 83.3461V93.0677C41.571 93.3715 41.4698 93.6044 41.2672 93.7664C41.0647 93.9284 40.8419 94.0094 40.5989 94.0094C40.3761 94.0094 40.1735 93.9385 39.9913 93.7968C39.809 93.6347 39.7179 93.3917 39.7179 93.0677V83.3461ZM44.7691 78.2423C44.7691 77.9385 44.8602 77.7056 45.0425 77.5436C45.2451 77.3816 45.4375 77.3006 45.6197 77.3006C45.802 77.3006 45.9438 77.3208 46.0451 77.3613C46.1463 77.4018 46.2375 77.4626 46.3185 77.5436C46.521 77.7056 46.6223 77.9385 46.6223 78.2423V93.0677C46.6223 93.3715 46.521 93.6044 46.3185 93.7664C46.1159 93.9284 45.8932 94.0094 45.6501 94.0094C45.4273 94.0094 45.2248 93.9385 45.0425 93.7968C44.8602 93.6347 44.7691 93.3917 44.7691 93.0677V78.2423ZM48.9697 88.2373C48.9697 87.5082 49.0811 86.7689 49.3039 86.0196C49.5469 85.2702 49.9115 84.612 50.3976 84.0449C51.4507 82.7689 52.909 82.1309 54.7722 82.1309C56.595 82.1309 58.0533 82.7689 59.1469 84.0449C60.0988 85.1588 60.5748 86.5461 60.5748 88.2069C60.5748 89.8474 60.0988 91.2347 59.1469 92.3689C58.0735 93.6246 56.6153 94.2525 54.7722 94.2525C52.8887 94.2525 51.4305 93.6246 50.3976 92.3689C49.4457 91.2145 48.9697 89.8373 48.9697 88.2373ZM50.9748 88.2373C50.9748 88.7234 51.0457 89.2398 51.1874 89.7866C51.3292 90.3335 51.552 90.8297 51.8558 91.2753C52.5647 92.3082 53.5368 92.8246 54.7722 92.8246C56.0279 92.8246 57.0001 92.3082 57.6887 91.2753C58.2558 90.4044 58.5393 89.3816 58.5393 88.2069C58.5393 87.0525 58.2558 86.0297 57.6887 85.1385C57.0204 84.1056 56.0482 83.5892 54.7722 83.5892C53.5166 83.5892 52.5444 84.1056 51.8558 85.1385C51.2685 86.0094 50.9748 87.0423 50.9748 88.2373ZM68.8208 92.5816C68.6183 93.0879 68.3955 93.4525 68.1525 93.6753C67.9297 93.898 67.6056 94.0094 67.1803 94.0094C66.7753 94.0094 66.4512 93.898 66.2082 93.6753C65.9651 93.4525 65.7423 93.0879 65.5398 92.5816L61.7727 83.5892C61.7322 83.4677 61.712 83.3563 61.712 83.255C61.712 83.1335 61.7322 83.0221 61.7727 82.9208C61.8335 82.7993 61.9145 82.7082 62.0158 82.6474C62.198 82.4854 62.4006 82.4044 62.6234 82.4044C63.0487 82.4044 63.3423 82.5968 63.5044 82.9816L67.1803 91.8525L70.7044 82.9816C70.8664 82.5968 71.1499 82.4044 71.555 82.4044C72.0006 82.4044 72.3044 82.5664 72.4664 82.8904C72.5069 82.9917 72.5272 83.1031 72.5272 83.2246C72.5272 83.3461 72.5069 83.4677 72.4664 83.5892L68.8208 92.5816ZM73.6503 88.2373C73.6503 87.5082 73.7617 86.7689 73.9845 86.0196C74.2276 85.2702 74.5921 84.612 75.0782 84.0449C76.1314 82.7689 77.5896 82.1309 79.4529 82.1309C81.2757 82.1309 82.7339 82.7689 83.8276 84.0449C84.7795 85.1588 85.2554 86.5461 85.2554 88.2069C85.2554 89.8474 84.7795 91.2347 83.8276 92.3689C82.7541 93.6246 81.2959 94.2525 79.4529 94.2525C77.5693 94.2525 76.1111 93.6246 75.0782 92.3689C74.1263 91.2145 73.6503 89.8373 73.6503 88.2373ZM75.6554 88.2373C75.6554 88.7234 75.7263 89.2398 75.8681 89.7866C76.0098 90.3335 76.2326 90.8297 76.5364 91.2753C77.2453 92.3082 78.2174 92.8246 79.4529 92.8246C80.7086 92.8246 81.6807 92.3082 82.3693 91.2753C82.9364 90.4044 83.22 89.3816 83.22 88.2069C83.22 87.0525 82.9364 86.0297 82.3693 85.1385C81.701 84.1056 80.7288 83.5892 79.4529 83.5892C78.1972 83.5892 77.225 84.1056 76.5364 85.1385C75.9491 86.0094 75.6554 87.0423 75.6554 88.2373Z" fill="black"/>
    </svg>


</svg>